G04 Layer_Physical_Order=1*
G04 Layer_Color=255*
%FSLAX44Y44*%
%MOMM*%
G71*
G01*
G75*
%ADD10R,7.7000X5.6000*%
%ADD11R,2.2000X1.2500*%
%ADD12R,2.1000X1.5500*%
%ADD13R,0.7500X0.9500*%
%ADD14R,0.8000X0.9500*%
%ADD15O,1.6500X1.0500*%
%ADD16R,1.0000X1.1000*%
%ADD17C,0.2500*%
%ADD18C,1.6000*%
%ADD19C,2.0000*%
%ADD20C,7.0000*%
%ADD21C,0.6000*%
G36*
X354500Y103250D02*
X443500D01*
Y77750D01*
X366500D01*
Y95750D01*
X332500D01*
Y120000D01*
X354500D01*
Y103250D01*
D02*
G37*
G36*
X306000Y40250D02*
X354500Y40250D01*
X354500Y20750D01*
X234000Y20750D01*
X234000Y175875D01*
X306000D01*
X306000Y40250D01*
D02*
G37*
G36*
X430000Y206750D02*
X408000D01*
Y297000D01*
X430000D01*
Y206750D01*
D02*
G37*
G36*
X387500Y185750D02*
X443500D01*
Y176750D01*
X366500D01*
Y207000D01*
X387500D01*
Y185750D01*
D02*
G37*
D10*
X405000Y149000D02*
D03*
Y50000D02*
D03*
D11*
X343500Y126000D02*
D03*
Y172000D02*
D03*
Y27000D02*
D03*
Y73000D02*
D03*
D12*
X419000Y214500D02*
D03*
X377000D02*
D03*
D13*
X84250Y234250D02*
D03*
X69750D02*
D03*
X84250Y183250D02*
D03*
X69750D02*
D03*
D14*
X69750Y202250D02*
D03*
X83250D02*
D03*
X69750Y253250D02*
D03*
X83250D02*
D03*
D15*
X115000Y253100D02*
D03*
Y227700D02*
D03*
Y202300D02*
D03*
Y176900D02*
D03*
X205000Y253100D02*
D03*
Y227700D02*
D03*
Y202300D02*
D03*
Y176900D02*
D03*
D16*
X84250Y147000D02*
D03*
X53250D02*
D03*
D17*
X205000Y202300D02*
X256700D01*
X270000Y189000D01*
Y140000D02*
Y189000D01*
X325000Y73000D02*
X343500D01*
X325000Y73000D02*
X325000Y73000D01*
X205150Y176750D02*
X220750D01*
X205000Y176900D02*
X205150Y176750D01*
X69750Y253250D02*
X69750Y253250D01*
X69750Y234250D02*
Y253250D01*
X83250Y253250D02*
X114850D01*
X115000Y253100D01*
X99250Y227750D02*
X114950D01*
X115000Y227700D01*
X99250Y177000D02*
X114900D01*
X115000Y176900D01*
X69750Y183250D02*
Y202250D01*
X69750Y202250D02*
X69750Y202250D01*
X83250Y202250D02*
X114950D01*
X115000Y202300D01*
X205000Y227700D02*
X308050D01*
X343500Y192250D01*
Y172000D02*
Y192250D01*
Y126000D02*
Y144250D01*
X360500Y161250D01*
Y182750D01*
X310750Y232500D02*
X360500Y182750D01*
X205000Y253100D02*
X222400D01*
X243000Y232500D01*
X310750D01*
X84250Y222000D02*
Y234250D01*
X84250Y234250D02*
X84250Y234250D01*
Y171000D02*
Y183250D01*
X84250Y183250D01*
X84250Y147000D02*
Y171000D01*
X53250Y147000D02*
X65750D01*
D18*
X91500Y87500D02*
D03*
Y57500D02*
D03*
D19*
X419000Y286000D02*
D03*
X377000D02*
D03*
D20*
X270000Y140000D02*
D03*
Y290000D02*
D03*
D21*
X325000Y73000D02*
D03*
X220750Y176750D02*
D03*
X99250Y227750D02*
D03*
Y177000D02*
D03*
X84250Y222000D02*
D03*
Y171000D02*
D03*
X65750Y147000D02*
D03*
M02*
