G04 Layer_Color=8388736*
%FSLAX44Y44*%
%MOMM*%
G71*
G01*
G75*
%ADD28R,7.9000X5.8000*%
%ADD29R,2.4000X1.4500*%
%ADD30R,2.3000X1.7500*%
%ADD31R,0.9500X1.1500*%
%ADD32R,1.0000X1.1500*%
%ADD33O,1.8500X1.2500*%
%ADD34R,1.2000X1.3000*%
%ADD35C,1.8000*%
%ADD36C,0.2000*%
%ADD37C,2.2000*%
%ADD38C,7.2000*%
D28*
X405000Y149000D02*
D03*
Y50000D02*
D03*
D29*
X343500Y126000D02*
D03*
Y172000D02*
D03*
Y27000D02*
D03*
Y73000D02*
D03*
D30*
X419000Y214500D02*
D03*
X377000D02*
D03*
D31*
X84250Y234250D02*
D03*
X69750D02*
D03*
X84250Y183250D02*
D03*
X69750D02*
D03*
D32*
X69750Y202250D02*
D03*
X83250D02*
D03*
X69750Y253250D02*
D03*
X83250D02*
D03*
D33*
X115000Y253100D02*
D03*
Y227700D02*
D03*
Y202300D02*
D03*
Y176900D02*
D03*
X205000Y253100D02*
D03*
Y227700D02*
D03*
Y202300D02*
D03*
Y176900D02*
D03*
D34*
X84250Y147000D02*
D03*
X53250D02*
D03*
D35*
X91500Y87500D02*
D03*
Y57500D02*
D03*
D36*
X48500Y72500D02*
D03*
X398000Y359500D02*
D03*
D37*
X419000Y286000D02*
D03*
X377000D02*
D03*
D38*
X270000Y140000D02*
D03*
Y290000D02*
D03*
M02*
