G04 Layer_Color=65535*
%FSLAX44Y44*%
%MOMM*%
G71*
G01*
G75*
%ADD17C,0.2500*%
%ADD23C,0.2000*%
%ADD24C,0.1000*%
%ADD25C,0.6000*%
%ADD26C,0.5000*%
%ADD27C,0.0127*%
D17*
X344750Y183750D02*
G03*
X344750Y183750I-1250J0D01*
G01*
X365750Y201250D02*
G03*
X365750Y201250I-1250J0D01*
G01*
X116250Y263850D02*
G03*
X116250Y263850I-1250J0D01*
G01*
X344750Y84750D02*
G03*
X344750Y84750I-1250J0D01*
G01*
X383000Y261245D02*
X392997D01*
X387998D01*
Y246250D01*
X407992Y258746D02*
X405493Y261245D01*
X400494D01*
X397995Y258746D01*
Y256247D01*
X400494Y253748D01*
X405493D01*
X407992Y251248D01*
Y248749D01*
X405493Y246250D01*
X400494D01*
X397995Y248749D01*
X112250Y128750D02*
X122247D01*
X127245Y123752D01*
X122247Y118753D01*
X112250D01*
X119748D01*
Y128750D01*
X127245Y113755D02*
Y108757D01*
Y111256D01*
X112250D01*
Y113755D01*
Y108757D01*
Y101259D02*
X127245D01*
Y93761D01*
X124746Y91262D01*
X119748D01*
X117248Y93761D01*
Y101259D01*
Y96260D02*
X112250Y91262D01*
X124746Y61272D02*
X127245Y63771D01*
Y68769D01*
X124746Y71269D01*
X122247D01*
X119748Y68769D01*
Y63771D01*
X117248Y61272D01*
X114749D01*
X112250Y63771D01*
Y68769D01*
X114749Y71269D01*
X127245Y56273D02*
X112250D01*
X119748D01*
Y46277D01*
X127245D01*
X112250D01*
X127245Y41278D02*
X112250D01*
Y33781D01*
X114749Y31282D01*
X124746D01*
X127245Y33781D01*
Y41278D01*
X112250Y26283D02*
X127245D01*
X112250Y16286D01*
X127245D01*
D23*
X95134Y47118D02*
G03*
X89062Y68227I-3634J10382D01*
G01*
Y76774D02*
G03*
X95134Y97883I2438J10726D01*
G01*
X404860Y280993D02*
G03*
X434000Y286000I14140J5007D01*
G01*
X362000D02*
G03*
X391140Y280993I15000J0D01*
G01*
X362500Y115000D02*
Y183000D01*
X371000Y200000D02*
X425000D01*
X371000Y229000D02*
X425000D01*
Y200000D02*
Y202750D01*
X371000Y200000D02*
Y202750D01*
X425000Y226250D02*
Y229000D01*
X371000Y226250D02*
Y229000D01*
X95000Y37500D02*
Y47000D01*
X2000Y37500D02*
X95000D01*
X89000Y68250D02*
Y76750D01*
X95000Y98000D02*
Y107500D01*
X2000D02*
X95000D01*
X127250Y165500D02*
Y264500D01*
X192750Y165500D02*
Y264500D01*
X127250D02*
X192750D01*
X127250Y165500D02*
X192750D01*
X362500Y16000D02*
Y84000D01*
X434000Y301000D02*
X447000D01*
X434000Y286000D02*
Y301000D01*
X362000Y286000D02*
Y301000D01*
X349000D02*
X362000D01*
X349000D02*
Y428000D01*
X391250Y281000D02*
X404750D01*
X447000Y301000D02*
Y428000D01*
X457164Y145666D02*
Y152331D01*
X455498Y153997D01*
X452166D01*
X450500Y152331D01*
Y145666D01*
X452166Y144000D01*
X455498D01*
X453832Y147332D02*
X457164Y144000D01*
X455498D02*
X457164Y145666D01*
X460497Y144000D02*
X463829D01*
X462163D01*
Y153997D01*
X460497Y152331D01*
X436500Y219497D02*
Y209500D01*
X441498D01*
X443164Y211166D01*
Y217831D01*
X441498Y219497D01*
X436500D01*
X446497Y209500D02*
X449829D01*
X448163D01*
Y219497D01*
X446497Y217831D01*
X335164Y422997D02*
X331832D01*
X333498D01*
Y414666D01*
X331832Y413000D01*
X330166D01*
X328500Y414666D01*
X338497Y413000D02*
X341829D01*
X340163D01*
Y422997D01*
X338497Y421330D01*
X42000Y197250D02*
Y207247D01*
X46998D01*
X48664Y205581D01*
Y202248D01*
X46998Y200582D01*
X42000D01*
X45332D02*
X48664Y197250D01*
X58661D02*
X51997D01*
X58661Y203915D01*
Y205581D01*
X56995Y207247D01*
X53663D01*
X51997Y205581D01*
X13664Y124497D02*
X10332D01*
X11998D01*
Y116166D01*
X10332Y114500D01*
X8666D01*
X7000Y116166D01*
X23661Y114500D02*
X16997D01*
X23661Y121165D01*
Y122831D01*
X21995Y124497D01*
X18663D01*
X16997Y122831D01*
X151750Y281497D02*
Y273166D01*
X153416Y271500D01*
X156748D01*
X158414Y273166D01*
Y281497D01*
X161747Y279831D02*
X163413Y281497D01*
X166745D01*
X168411Y279831D01*
Y278165D01*
X166745Y276498D01*
X165079D01*
X166745D01*
X168411Y274832D01*
Y273166D01*
X166745Y271500D01*
X163413D01*
X161747Y273166D01*
X45250Y248250D02*
Y258247D01*
X50248D01*
X51915Y256581D01*
Y253248D01*
X50248Y251582D01*
X45250D01*
X48582D02*
X51915Y248250D01*
X55247D02*
X58579D01*
X56913D01*
Y258247D01*
X55247Y256581D01*
X457164Y46666D02*
Y53331D01*
X455498Y54997D01*
X452166D01*
X450500Y53331D01*
Y46666D01*
X452166Y45000D01*
X455498D01*
X453832Y48332D02*
X457164Y45000D01*
X455498D02*
X457164Y46666D01*
X467161Y45000D02*
X460497D01*
X467161Y51665D01*
Y53331D01*
X465495Y54997D01*
X462163D01*
X460497Y53331D01*
X24750Y151997D02*
Y142000D01*
X29748D01*
X31414Y143666D01*
Y150331D01*
X29748Y151997D01*
X24750D01*
X41411Y142000D02*
X34747D01*
X41411Y148665D01*
Y150331D01*
X39745Y151997D01*
X36413D01*
X34747Y150331D01*
X147331Y412336D02*
X148997Y414002D01*
Y417334D01*
X147331Y419000D01*
X140666D01*
X139000Y417334D01*
Y414002D01*
X140666Y412336D01*
X143998D01*
Y415668D01*
X148997Y409003D02*
X139000D01*
Y402339D01*
X148997Y399006D02*
X142332D01*
X139000Y395674D01*
X142332Y392342D01*
X148997D01*
X180997Y419000D02*
Y412336D01*
Y415668D01*
X171000D01*
X177665Y409003D02*
X171000D01*
X174332D01*
X175998Y407337D01*
X177665Y405671D01*
Y404005D01*
Y397340D02*
Y394008D01*
X175998Y392342D01*
X171000D01*
Y397340D01*
X172666Y399006D01*
X174332Y397340D01*
Y392342D01*
X177665Y382345D02*
Y387343D01*
X175998Y389010D01*
X172666D01*
X171000Y387343D01*
Y382345D01*
X179331Y377347D02*
X177665D01*
Y379013D01*
Y375681D01*
Y377347D01*
X172666D01*
X171000Y375681D01*
Y370682D02*
Y367350D01*
Y369016D01*
X177665D01*
Y370682D01*
Y362352D02*
X171000Y359019D01*
X177665Y355687D01*
X171000Y347356D02*
Y350689D01*
X172666Y352355D01*
X175998D01*
X177665Y350689D01*
Y347356D01*
X175998Y345690D01*
X174332D01*
Y352355D01*
X42165Y237581D02*
X40498Y239247D01*
X37166D01*
X35500Y237581D01*
Y230916D01*
X37166Y229250D01*
X40498D01*
X42165Y230916D01*
X45497Y239247D02*
Y229250D01*
Y234248D01*
X52161D01*
Y239247D01*
Y229250D01*
X55494D02*
X58826D01*
X57160D01*
Y239247D01*
X55494Y237581D01*
X38914Y186581D02*
X37248Y188247D01*
X33916D01*
X32250Y186581D01*
Y179916D01*
X33916Y178250D01*
X37248D01*
X38914Y179916D01*
X42247Y188247D02*
Y178250D01*
Y183248D01*
X48911D01*
Y188247D01*
Y178250D01*
X58908D02*
X52244D01*
X58908Y184914D01*
Y186581D01*
X57242Y188247D01*
X53910D01*
X52244Y186581D01*
D24*
X64379Y241121D02*
G03*
X64379Y241121I-500J0D01*
G01*
Y190121D02*
G03*
X64379Y190121I-500J0D01*
G01*
X88750Y138500D02*
G03*
X88750Y138500I-500J0D01*
G01*
D25*
X140250Y254500D02*
G03*
X140250Y254500I-3000J0D01*
G01*
D26*
X160000Y290000D02*
Y426500D01*
Y3500D02*
Y157000D01*
D27*
X106275Y288337D02*
X106529D01*
X106275Y288464D02*
X106529D01*
X106275Y288591D02*
X106529D01*
X106402Y288718D02*
X106656D01*
X106402Y288845D02*
X106656D01*
X106402Y288972D02*
X106783D01*
X106402Y289099D02*
X106783D01*
X106402Y289226D02*
X106783D01*
X106402Y289353D02*
X106910D01*
X106402Y289480D02*
X106910D01*
X106529Y289607D02*
X106910D01*
X106529Y289734D02*
X107037D01*
X106529Y289861D02*
X107037D01*
X106529Y289988D02*
X107037D01*
X106529Y290115D02*
X107164D01*
X106529Y290242D02*
X107164D01*
X106656Y290369D02*
X107164D01*
X106656Y290496D02*
X107291D01*
X106656Y290623D02*
X107291D01*
X106656Y290750D02*
X107418D01*
X106656Y290877D02*
X107418D01*
X106656Y291004D02*
X107418D01*
X106656Y291131D02*
X107545D01*
X106783Y291258D02*
X107545D01*
X106783Y291385D02*
X107545D01*
X106783Y291512D02*
X107672D01*
X106783Y291639D02*
X107672D01*
X106783Y291766D02*
X107672D01*
X106783Y291893D02*
X107799D01*
X106783Y292020D02*
X107799D01*
X106910Y292147D02*
X107926D01*
X106910Y292274D02*
X107926D01*
X106910Y292401D02*
X107926D01*
X106910Y292528D02*
X108053D01*
X106910Y292655D02*
X108053D01*
X106910Y292782D02*
X108053D01*
X106910Y292909D02*
X108180D01*
X107037Y293036D02*
X108180D01*
X107037Y293163D02*
X108180D01*
X107037Y293290D02*
X108307D01*
X107037Y293417D02*
X108307D01*
X107037Y293544D02*
X108307D01*
X107037Y293671D02*
X108434D01*
X107164Y293798D02*
X108434D01*
X107164Y293925D02*
X108561D01*
X107164Y294052D02*
X108561D01*
X107164Y294179D02*
X108561D01*
X107164Y294306D02*
X108688D01*
X107164Y294433D02*
X108688D01*
X107164Y294560D02*
X108688D01*
X107291Y294687D02*
X108815D01*
X107291Y294814D02*
X108815D01*
X107291Y294941D02*
X108815D01*
X107291Y295068D02*
X108942D01*
X107291Y295195D02*
X108942D01*
X107291Y295322D02*
X109069D01*
X107291Y295449D02*
X109069D01*
X107418Y295576D02*
X109069D01*
X107418Y295703D02*
X109196D01*
X107418Y295830D02*
X109196D01*
X107418Y295957D02*
X109196D01*
X107418Y296084D02*
X109323D01*
X107418Y296211D02*
X109323D01*
X107418Y296338D02*
X109323D01*
X107545Y296465D02*
X109450D01*
X107545Y296592D02*
X109450D01*
X107545Y296719D02*
X109450D01*
X107545Y296846D02*
X109577D01*
X107545Y296973D02*
X109577D01*
X107545Y297100D02*
X109704D01*
X107672Y297227D02*
X109704D01*
X107672Y297354D02*
X109704D01*
X107672Y297481D02*
X109831D01*
X107672Y297608D02*
X109831D01*
X107672Y297735D02*
X109831D01*
X107672Y297862D02*
X109958D01*
X107672Y297989D02*
X109958D01*
X107799Y298116D02*
X109958D01*
X107799Y298243D02*
X110085D01*
X107799Y298370D02*
X110085D01*
X107799Y298497D02*
X110212D01*
X107799Y298624D02*
X110212D01*
X107799Y298751D02*
X110212D01*
X107799Y298878D02*
X110339D01*
X107926Y299005D02*
X110339D01*
X107926Y299132D02*
X110339D01*
X107926Y299259D02*
X110466D01*
X107926Y299386D02*
X110466D01*
X107926Y299513D02*
X110466D01*
X107926Y299640D02*
X110593D01*
X107926Y299767D02*
X110593D01*
X108053Y299894D02*
X110593D01*
X100433D02*
X102846D01*
X96115D02*
X98401D01*
X91670D02*
X94083D01*
X88876D02*
X90273D01*
X83288D02*
X85701D01*
X77954D02*
X80367D01*
X73636D02*
X75922D01*
X67413D02*
X72112D01*
X108053Y300021D02*
X110720D01*
X100306D02*
X103100D01*
X96115D02*
X98401D01*
X91670D02*
X94083D01*
X88622D02*
X90273D01*
X83034D02*
X85955D01*
X77700D02*
X80621D01*
X73636D02*
X75922D01*
X67413D02*
X72112D01*
X108053Y300148D02*
X110720D01*
X100179D02*
X103227D01*
X96115D02*
X98401D01*
X91670D02*
X94083D01*
X88495D02*
X90273D01*
X82907D02*
X86082D01*
X77573D02*
X80748D01*
X73636D02*
X75922D01*
X67413D02*
X72112D01*
X55475D02*
X61444D01*
X38076D02*
X48363D01*
X26265D02*
X32361D01*
X108053Y300275D02*
X110847D01*
X100052D02*
X103354D01*
X96115D02*
X98401D01*
X91670D02*
X94083D01*
X88495D02*
X90273D01*
X82907D02*
X86082D01*
X77573D02*
X80875D01*
X73636D02*
X75922D01*
X67413D02*
X72112D01*
X54840D02*
X62079D01*
X38076D02*
X48871D01*
X25757D02*
X32996D01*
X108053Y300402D02*
X110847D01*
X99925D02*
X103354D01*
X96115D02*
X98401D01*
X91670D02*
X94083D01*
X88368D02*
X90273D01*
X82780D02*
X86209D01*
X77446D02*
X80875D01*
X73636D02*
X75922D01*
X67413D02*
X72112D01*
X54459D02*
X62460D01*
X38076D02*
X49252D01*
X25376D02*
X33377D01*
X108053Y300529D02*
X110847D01*
X99925D02*
X103354D01*
X96877D02*
X97766D01*
X92432D02*
X93194D01*
X88368D02*
X90273D01*
X82780D02*
X86209D01*
X77446D02*
X81002D01*
X74398D02*
X75287D01*
X67413D02*
X72112D01*
X54205D02*
X62587D01*
X38076D02*
X49379D01*
X25122D02*
X33631D01*
X108180Y300656D02*
X110974D01*
X102465D02*
X103481D01*
X99925D02*
X100941D01*
X96877D02*
X97766D01*
X92432D02*
X93194D01*
X88368D02*
X89257D01*
X85193D02*
X86209D01*
X82780D02*
X83669D01*
X79986D02*
X81002D01*
X77446D02*
X78335D01*
X74398D02*
X75287D01*
X71223D02*
X72112D01*
X68302D02*
X69191D01*
X54078D02*
X62841D01*
X38076D02*
X49633D01*
X24995D02*
X33758D01*
X108180Y300783D02*
X110974D01*
X102592D02*
X103481D01*
X99925D02*
X100814D01*
X96877D02*
X97766D01*
X92432D02*
X93194D01*
X88368D02*
X89257D01*
X85320D02*
X86209D01*
X82653D02*
X83542D01*
X80113D02*
X81002D01*
X77446D02*
X78335D01*
X74398D02*
X75287D01*
X71223D02*
X72112D01*
X68302D02*
X69191D01*
X53951D02*
X62968D01*
X38076D02*
X49760D01*
X24868D02*
X33885D01*
X108180Y300910D02*
X110974D01*
X102592D02*
X103481D01*
X99925D02*
X100687D01*
X96877D02*
X97766D01*
X92432D02*
X93194D01*
X88368D02*
X89130D01*
X85447D02*
X86209D01*
X82653D02*
X83542D01*
X80113D02*
X81002D01*
X77446D02*
X78208D01*
X74398D02*
X75287D01*
X71223D02*
X72112D01*
X68302D02*
X69191D01*
X53824D02*
X63095D01*
X38076D02*
X49887D01*
X24741D02*
X34012D01*
X108180Y301037D02*
X111101D01*
X102592D02*
X103481D01*
X99925D02*
X100687D01*
X96877D02*
X97766D01*
X92432D02*
X93194D01*
X88368D02*
X89130D01*
X85447D02*
X86209D01*
X82653D02*
X83542D01*
X80113D02*
X81002D01*
X77446D02*
X78208D01*
X74398D02*
X75287D01*
X71223D02*
X72112D01*
X68302D02*
X69191D01*
X53697D02*
X63222D01*
X38076D02*
X49887D01*
X24614D02*
X34139D01*
X108180Y301164D02*
X111101D01*
X102592D02*
X103481D01*
X99925D02*
X100687D01*
X96877D02*
X97766D01*
X92432D02*
X93194D01*
X88368D02*
X89130D01*
X85447D02*
X86209D01*
X82653D02*
X83542D01*
X80113D02*
X81002D01*
X77446D02*
X78208D01*
X74398D02*
X75287D01*
X71223D02*
X72112D01*
X68302D02*
X69191D01*
X53570D02*
X63349D01*
X38076D02*
X50014D01*
X24487D02*
X34266D01*
X108180Y301291D02*
X111101D01*
X102592D02*
X103481D01*
X99925D02*
X100687D01*
X96877D02*
X97766D01*
X92432D02*
X93194D01*
X88368D02*
X89130D01*
X85447D02*
X86209D01*
X82653D02*
X83542D01*
X80113D02*
X81002D01*
X77446D02*
X78208D01*
X74398D02*
X75287D01*
X71223D02*
X72112D01*
X68302D02*
X69191D01*
X53570D02*
X63349D01*
X38076D02*
X50141D01*
X24360D02*
X34266D01*
X108180Y301418D02*
X111228D01*
X102592D02*
X103481D01*
X99925D02*
X100687D01*
X96877D02*
X97766D01*
X92432D02*
X93194D01*
X88368D02*
X89130D01*
X85447D02*
X86209D01*
X82653D02*
X83542D01*
X77446D02*
X78208D01*
X74398D02*
X75287D01*
X71223D02*
X72112D01*
X68302D02*
X69191D01*
X53443D02*
X63476D01*
X38076D02*
X50141D01*
X24360D02*
X34393D01*
X108307Y301545D02*
X111228D01*
X99925D02*
X100687D01*
X96877D02*
X97766D01*
X92432D02*
X93194D01*
X88368D02*
X89130D01*
X82653D02*
X83542D01*
X77446D02*
X78208D01*
X74398D02*
X75287D01*
X68302D02*
X69191D01*
X53443D02*
X63476D01*
X38076D02*
X50268D01*
X24233D02*
X34393D01*
X108307Y301672D02*
X111355D01*
X99925D02*
X100687D01*
X96877D02*
X97766D01*
X92432D02*
X93194D01*
X88368D02*
X89130D01*
X82653D02*
X83542D01*
X77446D02*
X78208D01*
X74398D02*
X75287D01*
X68302D02*
X69191D01*
X53316D02*
X63603D01*
X38076D02*
X50268D01*
X24233D02*
X34520D01*
X108307Y301799D02*
X111355D01*
X99925D02*
X100687D01*
X96877D02*
X97766D01*
X92432D02*
X93194D01*
X88368D02*
X89130D01*
X82653D02*
X83542D01*
X77446D02*
X78208D01*
X74398D02*
X75287D01*
X68302D02*
X69191D01*
X53316D02*
X63603D01*
X38076D02*
X50268D01*
X24233D02*
X34520D01*
X108307Y301926D02*
X111355D01*
X99925D02*
X100687D01*
X96877D02*
X97766D01*
X92432D02*
X93194D01*
X88368D02*
X89130D01*
X82653D02*
X83542D01*
X77446D02*
X81002D01*
X74398D02*
X75287D01*
X68302D02*
X69191D01*
X53189D02*
X63603D01*
X38076D02*
X50395D01*
X24106D02*
X34647D01*
X108307Y302053D02*
X111482D01*
X99925D02*
X100687D01*
X96877D02*
X97766D01*
X92432D02*
X93194D01*
X88368D02*
X89130D01*
X82653D02*
X83542D01*
X77446D02*
X81002D01*
X74398D02*
X75287D01*
X68302D02*
X69191D01*
X53189D02*
X63730D01*
X40108D02*
X50395D01*
X24106D02*
X34647D01*
X108307Y302180D02*
X111482D01*
X99925D02*
X100687D01*
X96877D02*
X97766D01*
X92432D02*
X93194D01*
X88368D02*
X89130D01*
X82653D02*
X83542D01*
X77446D02*
X81002D01*
X74398D02*
X75287D01*
X68302D02*
X69191D01*
X61063D02*
X63730D01*
X53189D02*
X55856D01*
X47855D02*
X50395D01*
X40108D02*
X42140D01*
X31980D02*
X34647D01*
X24106D02*
X26773D01*
X108307Y302307D02*
X111482D01*
X99925D02*
X100687D01*
X96877D02*
X97766D01*
X92432D02*
X93194D01*
X88368D02*
X89130D01*
X82653D02*
X83542D01*
X77446D02*
X81002D01*
X74398D02*
X75287D01*
X68302D02*
X69191D01*
X61317D02*
X63730D01*
X53189D02*
X55602D01*
X47982D02*
X50522D01*
X40108D02*
X42140D01*
X32234D02*
X34647D01*
X24106D02*
X26519D01*
X108434Y302434D02*
X111609D01*
X99925D02*
X100687D01*
X96877D02*
X97766D01*
X92432D02*
X93194D01*
X88368D02*
X89130D01*
X82653D02*
X83542D01*
X77446D02*
X81002D01*
X74398D02*
X75287D01*
X68302D02*
X71477D01*
X61444D02*
X63730D01*
X53189D02*
X55475D01*
X48109D02*
X50522D01*
X40108D02*
X42140D01*
X32361D02*
X34647D01*
X23979D02*
X26392D01*
X108434Y302561D02*
X111609D01*
X99925D02*
X100687D01*
X96877D02*
X97766D01*
X92432D02*
X93194D01*
X88368D02*
X89130D01*
X82653D02*
X83542D01*
X80113D02*
X81002D01*
X77446D02*
X78208D01*
X74398D02*
X75287D01*
X68302D02*
X71477D01*
X61571D02*
X63730D01*
X53189D02*
X55348D01*
X48236D02*
X50522D01*
X40108D02*
X42140D01*
X32488D02*
X34647D01*
X23979D02*
X26265D01*
X108434Y302688D02*
X111609D01*
X99925D02*
X100687D01*
X96877D02*
X97766D01*
X92432D02*
X93194D01*
X88368D02*
X89130D01*
X82653D02*
X83542D01*
X80113D02*
X81002D01*
X77446D02*
X78208D01*
X74398D02*
X75287D01*
X68302D02*
X71477D01*
X61571D02*
X63730D01*
X53062D02*
X55348D01*
X48236D02*
X50522D01*
X40108D02*
X42140D01*
X32488D02*
X34774D01*
X23979D02*
X26265D01*
X108434Y302815D02*
X111736D01*
X102592D02*
X103481D01*
X99925D02*
X100687D01*
X96877D02*
X97766D01*
X92432D02*
X93194D01*
X88368D02*
X89130D01*
X85447D02*
X86209D01*
X82653D02*
X83542D01*
X80113D02*
X81002D01*
X77446D02*
X78208D01*
X74398D02*
X75287D01*
X68302D02*
X71477D01*
X61571D02*
X63730D01*
X53062D02*
X55348D01*
X48236D02*
X50522D01*
X40108D02*
X42140D01*
X32488D02*
X34774D01*
X23979D02*
X26138D01*
X108434Y302942D02*
X111736D01*
X102592D02*
X103481D01*
X99925D02*
X100687D01*
X96877D02*
X97766D01*
X92432D02*
X93194D01*
X88368D02*
X89130D01*
X85447D02*
X86209D01*
X82653D02*
X83542D01*
X80113D02*
X81002D01*
X77446D02*
X78208D01*
X74398D02*
X75287D01*
X68302D02*
X71477D01*
X61571D02*
X63730D01*
X53062D02*
X55221D01*
X48363D02*
X50522D01*
X40108D02*
X42140D01*
X32615D02*
X34774D01*
X23979D02*
X26138D01*
X108434Y303069D02*
X111736D01*
X102592D02*
X103481D01*
X99925D02*
X100687D01*
X96877D02*
X97766D01*
X92432D02*
X93194D01*
X88368D02*
X89130D01*
X85447D02*
X86209D01*
X82653D02*
X83542D01*
X80113D02*
X81002D01*
X77446D02*
X78208D01*
X74398D02*
X75287D01*
X68302D02*
X71477D01*
X61571D02*
X63730D01*
X53062D02*
X55221D01*
X48363D02*
X50522D01*
X40108D02*
X42140D01*
X32615D02*
X34774D01*
X23979D02*
X26138D01*
X108434Y303196D02*
X111863D01*
X102592D02*
X103481D01*
X99925D02*
X100687D01*
X96877D02*
X97766D01*
X92432D02*
X93321D01*
X88368D02*
X89130D01*
X85447D02*
X86209D01*
X82653D02*
X83542D01*
X80113D02*
X81002D01*
X77446D02*
X78208D01*
X74398D02*
X75287D01*
X68302D02*
X71477D01*
X61698D02*
X63730D01*
X53062D02*
X55221D01*
X48363D02*
X50522D01*
X40108D02*
X42140D01*
X32615D02*
X34774D01*
X23979D02*
X26138D01*
X108561Y303323D02*
X111863D01*
X102592D02*
X103481D01*
X99925D02*
X100814D01*
X96877D02*
X97766D01*
X92432D02*
X93575D01*
X88368D02*
X89130D01*
X85320D02*
X86209D01*
X82653D02*
X83542D01*
X80113D02*
X81002D01*
X77446D02*
X78208D01*
X74398D02*
X75287D01*
X68302D02*
X69191D01*
X61698D02*
X63730D01*
X53062D02*
X55221D01*
X48363D02*
X50649D01*
X40108D02*
X42140D01*
X32615D02*
X34774D01*
X23979D02*
X26138D01*
X108561Y303450D02*
X111990D01*
X102465D02*
X103481D01*
X99925D02*
X100814D01*
X96877D02*
X97766D01*
X92432D02*
X93956D01*
X88368D02*
X89130D01*
X85320D02*
X86209D01*
X82653D02*
X83669D01*
X80113D02*
X81002D01*
X77446D02*
X78335D01*
X74398D02*
X75287D01*
X68302D02*
X69191D01*
X61698D02*
X63730D01*
X53062D02*
X55221D01*
X48363D02*
X50649D01*
X40108D02*
X42140D01*
X32615D02*
X34774D01*
X23979D02*
X26138D01*
X108561Y303577D02*
X111990D01*
X102338D02*
X103481D01*
X99925D02*
X100941D01*
X96877D02*
X97766D01*
X92432D02*
X94845D01*
X88368D02*
X89130D01*
X85193D02*
X86209D01*
X82780D02*
X83796D01*
X79986D02*
X81002D01*
X77446D02*
X78335D01*
X74398D02*
X75287D01*
X68302D02*
X69191D01*
X61698D02*
X63730D01*
X53062D02*
X55221D01*
X48363D02*
X50649D01*
X40108D02*
X42140D01*
X32615D02*
X34774D01*
X23979D02*
X26138D01*
X108561Y303704D02*
X111990D01*
X99925D02*
X103354D01*
X96115D02*
X97766D01*
X91670D02*
X94845D01*
X87606D02*
X90273D01*
X82780D02*
X86209D01*
X77446D02*
X81002D01*
X74398D02*
X75287D01*
X68302D02*
X69191D01*
X61698D02*
X63730D01*
X53062D02*
X55221D01*
X48363D02*
X50649D01*
X40108D02*
X42140D01*
X32615D02*
X34774D01*
X23979D02*
X26138D01*
X108561Y303831D02*
X112117D01*
X99925D02*
X103354D01*
X96115D02*
X97766D01*
X91670D02*
X94845D01*
X87606D02*
X90273D01*
X82780D02*
X86209D01*
X77446D02*
X80875D01*
X74398D02*
X75287D01*
X68302D02*
X69191D01*
X61698D02*
X63730D01*
X53062D02*
X55221D01*
X48490D02*
X50649D01*
X40108D02*
X42140D01*
X32615D02*
X34774D01*
X23979D02*
X26138D01*
X108561Y303958D02*
X112117D01*
X100052D02*
X103354D01*
X96115D02*
X97766D01*
X93321D02*
X94845D01*
X91670D02*
X93194D01*
X87606D02*
X90273D01*
X82907D02*
X86082D01*
X77573D02*
X80875D01*
X74398D02*
X75287D01*
X68302D02*
X69191D01*
X61698D02*
X63730D01*
X53062D02*
X55221D01*
X48490D02*
X50649D01*
X40108D02*
X42140D01*
X32615D02*
X34774D01*
X23979D02*
X26138D01*
X108688Y304085D02*
X112117D01*
X100179D02*
X103227D01*
X96115D02*
X97766D01*
X93575D02*
X94845D01*
X91670D02*
X93194D01*
X87606D02*
X90273D01*
X82907D02*
X85955D01*
X77700D02*
X80748D01*
X74398D02*
X75287D01*
X71223D02*
X72112D01*
X68302D02*
X69191D01*
X61698D02*
X63730D01*
X53062D02*
X55221D01*
X48490D02*
X50649D01*
X40108D02*
X42140D01*
X32615D02*
X34774D01*
X23979D02*
X26138D01*
X108688Y304212D02*
X112244D01*
X100306D02*
X103100D01*
X96115D02*
X97766D01*
X93702D02*
X94845D01*
X91670D02*
X93194D01*
X87606D02*
X90273D01*
X83161D02*
X85828D01*
X77827D02*
X80621D01*
X74398D02*
X75287D01*
X71223D02*
X72112D01*
X68302D02*
X69191D01*
X61698D02*
X63730D01*
X53062D02*
X55221D01*
X48490D02*
X50649D01*
X40108D02*
X42140D01*
X32615D02*
X34774D01*
X23979D02*
X26138D01*
X108688Y304339D02*
X112244D01*
X100560D02*
X102719D01*
X96115D02*
X97766D01*
X94083D02*
X94845D01*
X91670D02*
X93194D01*
X87606D02*
X90273D01*
X83415D02*
X85574D01*
X78081D02*
X80367D01*
X74398D02*
X75287D01*
X71223D02*
X72112D01*
X68302D02*
X69191D01*
X61698D02*
X63730D01*
X53062D02*
X55221D01*
X48490D02*
X50649D01*
X40108D02*
X42140D01*
X32615D02*
X34774D01*
X23979D02*
X26138D01*
X108688Y304466D02*
X112244D01*
X88368D02*
X89130D01*
X74398D02*
X75287D01*
X71223D02*
X72112D01*
X68302D02*
X69191D01*
X61698D02*
X63730D01*
X53062D02*
X55221D01*
X48490D02*
X50649D01*
X40108D02*
X42140D01*
X32615D02*
X34774D01*
X23979D02*
X26138D01*
X108688Y304593D02*
X112371D01*
X88368D02*
X89130D01*
X74398D02*
X75287D01*
X71223D02*
X72112D01*
X68302D02*
X69191D01*
X61698D02*
X63730D01*
X53062D02*
X55221D01*
X48490D02*
X50649D01*
X40108D02*
X42140D01*
X32615D02*
X34774D01*
X23979D02*
X26138D01*
X108688Y304720D02*
X112371D01*
X88368D02*
X89130D01*
X74398D02*
X75287D01*
X71223D02*
X72112D01*
X68302D02*
X69191D01*
X61698D02*
X63730D01*
X53062D02*
X55221D01*
X48490D02*
X50649D01*
X40108D02*
X42140D01*
X32615D02*
X34774D01*
X23979D02*
X26138D01*
X108688Y304847D02*
X112498D01*
X88368D02*
X89130D01*
X74398D02*
X75287D01*
X71223D02*
X72112D01*
X68302D02*
X69191D01*
X61698D02*
X63730D01*
X53062D02*
X55221D01*
X48490D02*
X50649D01*
X40108D02*
X42140D01*
X32615D02*
X34774D01*
X23979D02*
X26138D01*
X108815Y304974D02*
X112498D01*
X96877D02*
X97766D01*
X88368D02*
X89130D01*
X74398D02*
X75287D01*
X67413D02*
X72112D01*
X61698D02*
X63730D01*
X53062D02*
X55221D01*
X48490D02*
X50649D01*
X40108D02*
X42140D01*
X32615D02*
X34774D01*
X23979D02*
X26138D01*
X108815Y305101D02*
X112498D01*
X96877D02*
X97766D01*
X88368D02*
X89130D01*
X74398D02*
X75287D01*
X67413D02*
X72112D01*
X53062D02*
X55221D01*
X48490D02*
X50649D01*
X40108D02*
X42140D01*
X32615D02*
X34774D01*
X23979D02*
X26138D01*
X108815Y305228D02*
X112625D01*
X96877D02*
X97766D01*
X88368D02*
X89130D01*
X74398D02*
X75287D01*
X67413D02*
X72112D01*
X53062D02*
X55221D01*
X48490D02*
X50649D01*
X40108D02*
X42140D01*
X32615D02*
X34774D01*
X23979D02*
X26138D01*
X108815Y305355D02*
X112625D01*
X96877D02*
X97766D01*
X88368D02*
X89130D01*
X73636D02*
X75287D01*
X67413D02*
X72112D01*
X53062D02*
X55221D01*
X48363D02*
X50649D01*
X40108D02*
X42140D01*
X32615D02*
X34774D01*
X23979D02*
X26138D01*
X108815Y305482D02*
X112625D01*
X96877D02*
X97766D01*
X73636D02*
X75287D01*
X67413D02*
X72112D01*
X53062D02*
X55221D01*
X48363D02*
X50522D01*
X40108D02*
X42140D01*
X32615D02*
X34774D01*
X23979D02*
X26138D01*
X108815Y305609D02*
X112752D01*
X96877D02*
X97766D01*
X73636D02*
X75287D01*
X67413D02*
X72112D01*
X53062D02*
X55221D01*
X48363D02*
X50522D01*
X40108D02*
X42140D01*
X32615D02*
X34774D01*
X23979D02*
X26138D01*
X108815Y305736D02*
X112752D01*
X96877D02*
X97766D01*
X73636D02*
X75287D01*
X53062D02*
X55221D01*
X48363D02*
X50522D01*
X40108D02*
X42140D01*
X32615D02*
X34774D01*
X23979D02*
X26138D01*
X108942Y305863D02*
X112752D01*
X73636D02*
X75287D01*
X53062D02*
X55221D01*
X48363D02*
X50522D01*
X40108D02*
X42140D01*
X32615D02*
X34774D01*
X23979D02*
X26138D01*
X108942Y305990D02*
X112879D01*
X53062D02*
X55221D01*
X48363D02*
X50522D01*
X40108D02*
X42140D01*
X32615D02*
X34774D01*
X23979D02*
X26138D01*
X108942Y306117D02*
X112879D01*
X53062D02*
X55221D01*
X48363D02*
X50522D01*
X40108D02*
X42140D01*
X32615D02*
X34774D01*
X23979D02*
X26138D01*
X108942Y306244D02*
X112879D01*
X53062D02*
X55221D01*
X48236D02*
X50395D01*
X40108D02*
X42140D01*
X32615D02*
X34774D01*
X23979D02*
X26138D01*
X108942Y306371D02*
X113006D01*
X53062D02*
X55221D01*
X48236D02*
X50395D01*
X40108D02*
X42140D01*
X32615D02*
X34774D01*
X23979D02*
X26138D01*
X108942Y306498D02*
X113006D01*
X53062D02*
X55221D01*
X48109D02*
X50395D01*
X40108D02*
X42140D01*
X32615D02*
X34774D01*
X23979D02*
X26138D01*
X108942Y306625D02*
X113133D01*
X53062D02*
X55221D01*
X47982D02*
X50395D01*
X40108D02*
X42140D01*
X32615D02*
X34774D01*
X23979D02*
X26138D01*
X109069Y306752D02*
X113133D01*
X53062D02*
X55221D01*
X47855D02*
X50268D01*
X40108D02*
X42140D01*
X32615D02*
X34774D01*
X23979D02*
X26138D01*
X109069Y306879D02*
X113133D01*
X53062D02*
X55221D01*
X47347D02*
X50268D01*
X40108D02*
X42140D01*
X32615D02*
X34774D01*
X23979D02*
X26138D01*
X109069Y307006D02*
X113260D01*
X53062D02*
X55221D01*
X40108D02*
X50141D01*
X32615D02*
X34774D01*
X23979D02*
X26138D01*
X109069Y307133D02*
X113260D01*
X53062D02*
X55221D01*
X40108D02*
X50014D01*
X32615D02*
X34774D01*
X23979D02*
X26138D01*
X109069Y307260D02*
X113260D01*
X53062D02*
X55221D01*
X40108D02*
X50014D01*
X32615D02*
X34774D01*
X23979D02*
X26138D01*
X109069Y307387D02*
X113387D01*
X53062D02*
X55221D01*
X40108D02*
X49887D01*
X32615D02*
X34774D01*
X23979D02*
X26138D01*
X109196Y307514D02*
X113387D01*
X53062D02*
X55221D01*
X40108D02*
X49760D01*
X32615D02*
X34774D01*
X23979D02*
X26138D01*
X109196Y307641D02*
X113387D01*
X53062D02*
X55221D01*
X40108D02*
X49506D01*
X32615D02*
X34774D01*
X23979D02*
X26138D01*
X109196Y307768D02*
X113514D01*
X53062D02*
X55221D01*
X40108D02*
X49252D01*
X32615D02*
X34774D01*
X23979D02*
X26138D01*
X109196Y307895D02*
X113514D01*
X53062D02*
X55221D01*
X40108D02*
X49379D01*
X32615D02*
X34774D01*
X23979D02*
X26138D01*
X109196Y308022D02*
X113514D01*
X53062D02*
X55221D01*
X40108D02*
X49506D01*
X32615D02*
X34774D01*
X23979D02*
X26138D01*
X109196Y308149D02*
X113641D01*
X53062D02*
X55221D01*
X40108D02*
X49633D01*
X32615D02*
X34774D01*
X23979D02*
X26138D01*
X109196Y308276D02*
X113641D01*
X53062D02*
X55221D01*
X40108D02*
X49760D01*
X32615D02*
X34774D01*
X23979D02*
X26138D01*
X109323Y308403D02*
X113768D01*
X53062D02*
X55221D01*
X40108D02*
X49887D01*
X32615D02*
X34774D01*
X23979D02*
X26138D01*
X109323Y308530D02*
X113768D01*
X53062D02*
X55221D01*
X40108D02*
X50014D01*
X32615D02*
X34774D01*
X23979D02*
X26138D01*
X109323Y308657D02*
X113768D01*
X53062D02*
X55221D01*
X40108D02*
X50014D01*
X32615D02*
X34774D01*
X23979D02*
X26138D01*
X109323Y308784D02*
X113895D01*
X53062D02*
X55221D01*
X47093D02*
X50141D01*
X40108D02*
X42140D01*
X32615D02*
X34774D01*
X23979D02*
X26138D01*
X109323Y308911D02*
X113895D01*
X53062D02*
X55221D01*
X47728D02*
X50141D01*
X40108D02*
X42140D01*
X32615D02*
X34774D01*
X23979D02*
X26138D01*
X109323Y309038D02*
X113895D01*
X53062D02*
X55221D01*
X47855D02*
X50268D01*
X40108D02*
X42140D01*
X32615D02*
X34774D01*
X23979D02*
X26138D01*
X109323Y309165D02*
X114022D01*
X53062D02*
X55221D01*
X47982D02*
X50268D01*
X40108D02*
X42140D01*
X32615D02*
X34774D01*
X23979D02*
X26138D01*
X109450Y309292D02*
X114022D01*
X53062D02*
X55221D01*
X48109D02*
X50268D01*
X40108D02*
X42140D01*
X32615D02*
X34774D01*
X23979D02*
X26138D01*
X109450Y309419D02*
X114022D01*
X93194D02*
X93702D01*
X53062D02*
X55221D01*
X48109D02*
X50268D01*
X40108D02*
X42140D01*
X32615D02*
X34774D01*
X23979D02*
X26138D01*
X109450Y309546D02*
X114149D01*
X104243D02*
X105640D01*
X101957D02*
X103608D01*
X97766D02*
X99925D01*
X94845D02*
X96369D01*
X92559D02*
X94210D01*
X88368D02*
X90527D01*
X85701D02*
X87860D01*
X83034D02*
X85193D01*
X78589D02*
X81002D01*
X74017D02*
X76557D01*
X67413D02*
X70080D01*
X53062D02*
X55221D01*
X48109D02*
X50395D01*
X40108D02*
X42140D01*
X32615D02*
X34774D01*
X23979D02*
X26138D01*
X109450Y309673D02*
X114149D01*
X104243D02*
X105640D01*
X101703D02*
X103862D01*
X97766D02*
X99925D01*
X94845D02*
X96369D01*
X92432D02*
X94464D01*
X88368D02*
X90527D01*
X85701D02*
X87860D01*
X83034D02*
X85193D01*
X78589D02*
X81002D01*
X73890D02*
X76811D01*
X67413D02*
X70080D01*
X53062D02*
X55221D01*
X48236D02*
X50395D01*
X40108D02*
X42140D01*
X32615D02*
X34774D01*
X23979D02*
X26138D01*
X109450Y309800D02*
X114276D01*
X104243D02*
X105640D01*
X101576D02*
X103989D01*
X97766D02*
X99925D01*
X94845D02*
X96369D01*
X92305D02*
X94718D01*
X88368D02*
X90527D01*
X85701D02*
X87860D01*
X83034D02*
X85193D01*
X78589D02*
X81002D01*
X73763D02*
X76938D01*
X67413D02*
X70080D01*
X53062D02*
X55221D01*
X48236D02*
X50395D01*
X40108D02*
X42140D01*
X32615D02*
X34774D01*
X23979D02*
X26138D01*
X109450Y309927D02*
X114276D01*
X104243D02*
X105640D01*
X101576D02*
X104116D01*
X97766D02*
X99925D01*
X92178D02*
X96369D01*
X88368D02*
X90527D01*
X85701D02*
X87860D01*
X83034D02*
X85193D01*
X78589D02*
X81002D01*
X73636D02*
X77065D01*
X67413D02*
X70080D01*
X53062D02*
X55221D01*
X48236D02*
X50395D01*
X40108D02*
X42140D01*
X32615D02*
X34774D01*
X23979D02*
X26138D01*
X109450Y310054D02*
X114276D01*
X101449D02*
X105640D01*
X97766D02*
X99925D01*
X92178D02*
X96369D01*
X88368D02*
X90527D01*
X85701D02*
X87860D01*
X83034D02*
X85193D01*
X78589D02*
X81002D01*
X73636D02*
X77065D01*
X67413D02*
X70080D01*
X53062D02*
X55221D01*
X48236D02*
X50395D01*
X40108D02*
X42140D01*
X32615D02*
X34774D01*
X23979D02*
X26138D01*
X109577Y310181D02*
X114403D01*
X101449D02*
X105005D01*
X98401D02*
X99290D01*
X92178D02*
X95734D01*
X89003D02*
X89892D01*
X86336D02*
X87225D01*
X83796D02*
X84558D01*
X79351D02*
X80113D01*
X73509D02*
X77065D01*
X67413D02*
X70080D01*
X61698D02*
X63730D01*
X53062D02*
X55221D01*
X48236D02*
X50395D01*
X40108D02*
X42140D01*
X32615D02*
X34774D01*
X23979D02*
X26138D01*
X109577Y310308D02*
X114403D01*
X103481D02*
X105005D01*
X101449D02*
X102338D01*
X98401D02*
X99290D01*
X94210D02*
X95734D01*
X92178D02*
X93067D01*
X89003D02*
X89892D01*
X86336D02*
X87225D01*
X83796D02*
X84558D01*
X79351D02*
X80113D01*
X76176D02*
X77065D01*
X73509D02*
X74525D01*
X68302D02*
X69191D01*
X61698D02*
X63730D01*
X53062D02*
X55221D01*
X48236D02*
X50395D01*
X40108D02*
X42140D01*
X32615D02*
X34774D01*
X23979D02*
X26138D01*
X109577Y310435D02*
X114403D01*
X103862D02*
X105005D01*
X101449D02*
X102338D01*
X98401D02*
X99290D01*
X94464D02*
X95734D01*
X92178D02*
X93067D01*
X89003D02*
X89892D01*
X86336D02*
X87225D01*
X83796D02*
X84558D01*
X79351D02*
X80113D01*
X76303D02*
X77192D01*
X73509D02*
X74398D01*
X68302D02*
X69191D01*
X61698D02*
X63730D01*
X53062D02*
X55221D01*
X48236D02*
X50395D01*
X40108D02*
X42140D01*
X32615D02*
X34774D01*
X23979D02*
X26138D01*
X109577Y310562D02*
X114530D01*
X103989D02*
X105005D01*
X101449D02*
X102211D01*
X98401D02*
X99290D01*
X94718D02*
X95734D01*
X92178D02*
X92940D01*
X89003D02*
X89892D01*
X86336D02*
X87225D01*
X83796D02*
X84558D01*
X79351D02*
X80113D01*
X76303D02*
X77192D01*
X73509D02*
X74398D01*
X68302D02*
X69191D01*
X61698D02*
X63730D01*
X53062D02*
X55221D01*
X48236D02*
X50395D01*
X40108D02*
X42140D01*
X32615D02*
X34774D01*
X23979D02*
X26138D01*
X109577Y310689D02*
X114530D01*
X104243D02*
X105005D01*
X101449D02*
X102211D01*
X98401D02*
X99290D01*
X94845D02*
X95734D01*
X92178D02*
X92940D01*
X89003D02*
X89892D01*
X86336D02*
X87225D01*
X83796D02*
X84558D01*
X79351D02*
X80113D01*
X76303D02*
X77192D01*
X73509D02*
X74398D01*
X68302D02*
X69191D01*
X61698D02*
X63730D01*
X53062D02*
X55221D01*
X48236D02*
X50395D01*
X40108D02*
X42140D01*
X32615D02*
X34774D01*
X23979D02*
X26138D01*
X109577Y310816D02*
X114530D01*
X104243D02*
X105005D01*
X101449D02*
X102211D01*
X98401D02*
X99290D01*
X94845D02*
X95734D01*
X92178D02*
X92940D01*
X89003D02*
X89892D01*
X86336D02*
X87225D01*
X83796D02*
X84558D01*
X79351D02*
X80113D01*
X76303D02*
X77192D01*
X73509D02*
X74398D01*
X68302D02*
X69191D01*
X61698D02*
X63730D01*
X53062D02*
X55221D01*
X48236D02*
X50395D01*
X40108D02*
X42140D01*
X32615D02*
X34774D01*
X23979D02*
X26138D01*
X109704Y310943D02*
X114657D01*
X104243D02*
X105005D01*
X101449D02*
X102211D01*
X98401D02*
X99290D01*
X94845D02*
X95734D01*
X92178D02*
X92940D01*
X89003D02*
X89892D01*
X86336D02*
X87225D01*
X83796D02*
X84558D01*
X79351D02*
X80113D01*
X76303D02*
X77192D01*
X73509D02*
X74398D01*
X68302D02*
X69191D01*
X61698D02*
X63730D01*
X53062D02*
X55221D01*
X48236D02*
X50395D01*
X40108D02*
X42140D01*
X32615D02*
X34774D01*
X23979D02*
X26138D01*
X109704Y311070D02*
X114657D01*
X104243D02*
X105005D01*
X101449D02*
X102211D01*
X98401D02*
X99290D01*
X94845D02*
X95734D01*
X92178D02*
X92940D01*
X89003D02*
X89892D01*
X86336D02*
X87225D01*
X83796D02*
X84558D01*
X79351D02*
X80113D01*
X76303D02*
X77192D01*
X73509D02*
X74398D01*
X68302D02*
X69191D01*
X61698D02*
X63730D01*
X53062D02*
X55221D01*
X48236D02*
X50395D01*
X40108D02*
X42140D01*
X32615D02*
X34774D01*
X23979D02*
X26138D01*
X109704Y311197D02*
X114657D01*
X104243D02*
X105005D01*
X101449D02*
X102338D01*
X98401D02*
X99290D01*
X94845D02*
X95734D01*
X92178D02*
X92940D01*
X89003D02*
X89892D01*
X86336D02*
X87225D01*
X83796D02*
X84558D01*
X79351D02*
X80113D01*
X76303D02*
X77192D01*
X73509D02*
X74398D01*
X68302D02*
X69191D01*
X61698D02*
X63730D01*
X53062D02*
X55221D01*
X48236D02*
X50395D01*
X40108D02*
X42140D01*
X32615D02*
X34774D01*
X23979D02*
X26138D01*
X109704Y311324D02*
X114784D01*
X104243D02*
X105005D01*
X101449D02*
X102338D01*
X98401D02*
X99290D01*
X94845D02*
X95734D01*
X92178D02*
X92940D01*
X89003D02*
X89892D01*
X86336D02*
X87225D01*
X83796D02*
X84558D01*
X79351D02*
X80113D01*
X76303D02*
X77192D01*
X73509D02*
X74398D01*
X68302D02*
X69191D01*
X61698D02*
X63730D01*
X53062D02*
X55221D01*
X48236D02*
X50395D01*
X40108D02*
X42140D01*
X32615D02*
X34774D01*
X23979D02*
X26138D01*
X109704Y311451D02*
X114784D01*
X104243D02*
X105005D01*
X101449D02*
X102719D01*
X98401D02*
X99290D01*
X94845D02*
X95734D01*
X92178D02*
X92940D01*
X89003D02*
X89892D01*
X86336D02*
X87225D01*
X83796D02*
X84558D01*
X79351D02*
X80113D01*
X76303D02*
X77192D01*
X73509D02*
X74398D01*
X68302D02*
X69191D01*
X61698D02*
X63730D01*
X53062D02*
X55221D01*
X48236D02*
X50395D01*
X40108D02*
X42140D01*
X32615D02*
X34774D01*
X23979D02*
X26138D01*
X109704Y311578D02*
X114911D01*
X104243D02*
X105005D01*
X101576D02*
X103735D01*
X98401D02*
X99290D01*
X94845D02*
X95734D01*
X92178D02*
X92940D01*
X89003D02*
X89892D01*
X86336D02*
X87225D01*
X83796D02*
X84558D01*
X79351D02*
X80113D01*
X76303D02*
X77192D01*
X73509D02*
X74398D01*
X68302D02*
X69191D01*
X61698D02*
X63730D01*
X53062D02*
X55221D01*
X48236D02*
X50395D01*
X40108D02*
X42140D01*
X32615D02*
X34774D01*
X23979D02*
X26138D01*
X109704Y311705D02*
X114911D01*
X101576D02*
X105005D01*
X98401D02*
X99290D01*
X94845D02*
X95734D01*
X92178D02*
X92940D01*
X89003D02*
X89892D01*
X86336D02*
X87225D01*
X83796D02*
X84558D01*
X79351D02*
X80113D01*
X76303D02*
X77192D01*
X73509D02*
X74398D01*
X68302D02*
X69191D01*
X61698D02*
X63730D01*
X53062D02*
X55221D01*
X48236D02*
X50395D01*
X40108D02*
X42140D01*
X32615D02*
X34774D01*
X23979D02*
X26138D01*
X109831Y311832D02*
X114911D01*
X101703D02*
X105005D01*
X98401D02*
X99290D01*
X94845D02*
X95734D01*
X92178D02*
X92940D01*
X89003D02*
X89892D01*
X86336D02*
X87225D01*
X83796D02*
X84558D01*
X79351D02*
X80113D01*
X76303D02*
X77192D01*
X73509D02*
X74398D01*
X68302D02*
X69191D01*
X61698D02*
X63730D01*
X53062D02*
X55221D01*
X48236D02*
X50395D01*
X40108D02*
X42140D01*
X32615D02*
X34774D01*
X23979D02*
X26138D01*
X109831Y311959D02*
X115038D01*
X101957D02*
X105005D01*
X98401D02*
X99290D01*
X94845D02*
X95734D01*
X92178D02*
X92940D01*
X89003D02*
X89892D01*
X86336D02*
X87225D01*
X83796D02*
X84558D01*
X79351D02*
X80113D01*
X76303D02*
X77192D01*
X73509D02*
X74398D01*
X68302D02*
X69191D01*
X61698D02*
X63730D01*
X53062D02*
X55221D01*
X48236D02*
X50395D01*
X40108D02*
X42140D01*
X32615D02*
X34774D01*
X23979D02*
X26138D01*
X109831Y312086D02*
X115038D01*
X102211D02*
X105005D01*
X98401D02*
X99290D01*
X94845D02*
X95734D01*
X92178D02*
X92940D01*
X89003D02*
X89892D01*
X86336D02*
X87225D01*
X83796D02*
X84558D01*
X79351D02*
X80113D01*
X76303D02*
X77192D01*
X73509D02*
X74398D01*
X68302D02*
X71477D01*
X61571D02*
X63730D01*
X53062D02*
X55221D01*
X48236D02*
X50395D01*
X40108D02*
X42140D01*
X32615D02*
X34774D01*
X23979D02*
X26138D01*
X109831Y312213D02*
X115038D01*
X103481D02*
X105005D01*
X98401D02*
X99290D01*
X94845D02*
X95734D01*
X92178D02*
X92940D01*
X89003D02*
X89892D01*
X86336D02*
X87225D01*
X83796D02*
X84558D01*
X79351D02*
X80113D01*
X76303D02*
X77192D01*
X73509D02*
X74398D01*
X68302D02*
X71477D01*
X61571D02*
X63730D01*
X53062D02*
X55221D01*
X48236D02*
X50395D01*
X40108D02*
X42140D01*
X32615D02*
X34774D01*
X23979D02*
X26138D01*
X109831Y312340D02*
X115165D01*
X104243D02*
X105005D01*
X98401D02*
X99290D01*
X94845D02*
X95734D01*
X92178D02*
X92940D01*
X89003D02*
X89892D01*
X86336D02*
X87225D01*
X83796D02*
X84558D01*
X79351D02*
X80113D01*
X76303D02*
X77192D01*
X73509D02*
X74398D01*
X68302D02*
X71477D01*
X61571D02*
X63730D01*
X53062D02*
X55348D01*
X48109D02*
X50395D01*
X40108D02*
X42140D01*
X32615D02*
X34774D01*
X23979D02*
X26138D01*
X109831Y312467D02*
X115165D01*
X104243D02*
X105005D01*
X98401D02*
X99290D01*
X94845D02*
X95734D01*
X92178D02*
X92940D01*
X89003D02*
X89892D01*
X86336D02*
X87225D01*
X83796D02*
X84558D01*
X79351D02*
X80113D01*
X76303D02*
X77192D01*
X73509D02*
X74398D01*
X68302D02*
X71477D01*
X61571D02*
X63730D01*
X53062D02*
X55348D01*
X48109D02*
X50395D01*
X40108D02*
X42140D01*
X32615D02*
X34774D01*
X23979D02*
X26138D01*
X109831Y312594D02*
X115165D01*
X104243D02*
X105005D01*
X98401D02*
X99290D01*
X94845D02*
X95734D01*
X92178D02*
X92940D01*
X89003D02*
X89892D01*
X86336D02*
X87225D01*
X83796D02*
X84558D01*
X79351D02*
X80113D01*
X76303D02*
X77192D01*
X73509D02*
X74398D01*
X68302D02*
X71477D01*
X61571D02*
X63730D01*
X53189D02*
X55348D01*
X48109D02*
X50395D01*
X40108D02*
X42140D01*
X32615D02*
X34774D01*
X23979D02*
X26138D01*
X109958Y312721D02*
X115292D01*
X104243D02*
X105005D01*
X101576D02*
X102338D01*
X98401D02*
X99290D01*
X94845D02*
X95734D01*
X92178D02*
X92940D01*
X89003D02*
X89892D01*
X86336D02*
X87225D01*
X83796D02*
X84558D01*
X79351D02*
X80113D01*
X76303D02*
X77192D01*
X73509D02*
X74398D01*
X68302D02*
X71477D01*
X61444D02*
X63730D01*
X53189D02*
X55475D01*
X47982D02*
X50395D01*
X40108D02*
X42140D01*
X32615D02*
X34774D01*
X23979D02*
X26138D01*
X109958Y312848D02*
X115292D01*
X104243D02*
X105005D01*
X101576D02*
X102338D01*
X98401D02*
X99290D01*
X94845D02*
X95734D01*
X92178D02*
X92940D01*
X89003D02*
X89892D01*
X86336D02*
X87225D01*
X83796D02*
X84685D01*
X79351D02*
X80367D01*
X76303D02*
X77192D01*
X73509D02*
X74398D01*
X68302D02*
X69191D01*
X61317D02*
X63730D01*
X53189D02*
X55602D01*
X47855D02*
X50268D01*
X40108D02*
X42140D01*
X32615D02*
X34774D01*
X23979D02*
X26138D01*
X109958Y312975D02*
X115419D01*
X104116D02*
X105005D01*
X101576D02*
X102465D01*
X98401D02*
X99290D01*
X94845D02*
X95734D01*
X92178D02*
X92940D01*
X89003D02*
X89892D01*
X86336D02*
X87479D01*
X83796D02*
X84812D01*
X79351D02*
X80621D01*
X76303D02*
X77192D01*
X73509D02*
X74398D01*
X68302D02*
X69191D01*
X61063D02*
X63730D01*
X53189D02*
X55856D01*
X47601D02*
X50268D01*
X40108D02*
X42140D01*
X32615D02*
X34774D01*
X23979D02*
X26138D01*
X109958Y313102D02*
X115419D01*
X104116D02*
X105005D01*
X101576D02*
X102465D01*
X98401D02*
X99290D01*
X94845D02*
X95734D01*
X92178D02*
X92940D01*
X89003D02*
X89892D01*
X86336D02*
X87733D01*
X83796D02*
X85066D01*
X79351D02*
X80875D01*
X76176D02*
X77065D01*
X73509D02*
X74398D01*
X68302D02*
X69191D01*
X53189D02*
X63730D01*
X40108D02*
X50268D01*
X32615D02*
X34774D01*
X23979D02*
X26138D01*
X109958Y313229D02*
X115419D01*
X103989D02*
X105005D01*
X101576D02*
X102592D01*
X98401D02*
X99290D01*
X94845D02*
X95734D01*
X92178D02*
X92940D01*
X88876D02*
X89892D01*
X86209D02*
X88114D01*
X83796D02*
X85447D01*
X79351D02*
X81764D01*
X76049D02*
X77065D01*
X73509D02*
X74652D01*
X68302D02*
X69191D01*
X53189D02*
X63603D01*
X38076D02*
X50268D01*
X30583D02*
X36552D01*
X22074D02*
X28170D01*
X109958Y313356D02*
X115546D01*
X101576D02*
X105005D01*
X98401D02*
X99290D01*
X94083D02*
X95734D01*
X91416D02*
X92940D01*
X83034D02*
X89765D01*
X78589D02*
X81764D01*
X73509D02*
X77065D01*
X68302D02*
X69191D01*
X53316D02*
X63603D01*
X38076D02*
X50141D01*
X30583D02*
X36552D01*
X22074D02*
X28170D01*
X109958Y313483D02*
X115546D01*
X101703D02*
X104878D01*
X98401D02*
X99290D01*
X94083D02*
X95734D01*
X91416D02*
X92940D01*
X87225D02*
X89765D01*
X83034D02*
X87098D01*
X78589D02*
X81764D01*
X73636D02*
X77065D01*
X68302D02*
X69191D01*
X53316D02*
X63603D01*
X38076D02*
X50141D01*
X30583D02*
X36552D01*
X22074D02*
X28170D01*
X110085Y313610D02*
X115546D01*
X101703D02*
X104878D01*
X98401D02*
X99290D01*
X94083D02*
X95734D01*
X91416D02*
X92940D01*
X87352D02*
X89765D01*
X84685D02*
X87098D01*
X83034D02*
X84558D01*
X80367D02*
X81764D01*
X78589D02*
X80113D01*
X73636D02*
X76938D01*
X68302D02*
X69191D01*
X53443D02*
X63476D01*
X38076D02*
X50014D01*
X30583D02*
X36552D01*
X22074D02*
X28170D01*
X110085Y313737D02*
X115673D01*
X101830D02*
X104751D01*
X98401D02*
X99290D01*
X94083D02*
X95734D01*
X91416D02*
X92940D01*
X87479D02*
X89638D01*
X84939D02*
X86971D01*
X83034D02*
X84558D01*
X80494D02*
X81764D01*
X78589D02*
X80113D01*
X73763D02*
X76811D01*
X71223D02*
X72112D01*
X68302D02*
X69191D01*
X53443D02*
X63476D01*
X38076D02*
X50014D01*
X30583D02*
X36552D01*
X22074D02*
X28170D01*
X110085Y313864D02*
X115673D01*
X101957D02*
X104624D01*
X98401D02*
X99290D01*
X94083D02*
X95734D01*
X91416D02*
X92940D01*
X87733D02*
X89511D01*
X85066D02*
X86844D01*
X83034D02*
X84558D01*
X80748D02*
X81764D01*
X78589D02*
X80113D01*
X73890D02*
X76684D01*
X71223D02*
X72112D01*
X68302D02*
X69191D01*
X53570D02*
X63349D01*
X38076D02*
X50014D01*
X30583D02*
X36552D01*
X22074D02*
X28170D01*
X110085Y313991D02*
X115673D01*
X102338D02*
X104243D01*
X98401D02*
X99290D01*
X94083D02*
X95734D01*
X91416D02*
X92940D01*
X87987D02*
X89257D01*
X85320D02*
X86590D01*
X83034D02*
X84558D01*
X81129D02*
X81764D01*
X78589D02*
X80113D01*
X74271D02*
X76430D01*
X71223D02*
X72112D01*
X68302D02*
X69191D01*
X53570D02*
X63349D01*
X38076D02*
X49887D01*
X30583D02*
X36552D01*
X22074D02*
X28170D01*
X110085Y314118D02*
X115800D01*
X98401D02*
X99290D01*
X71223D02*
X72112D01*
X68302D02*
X69191D01*
X53697D02*
X63222D01*
X38076D02*
X49760D01*
X30583D02*
X36552D01*
X22074D02*
X28170D01*
X110085Y314245D02*
X115800D01*
X98401D02*
X99290D01*
X71223D02*
X72112D01*
X68302D02*
X69191D01*
X53824D02*
X63095D01*
X38076D02*
X49633D01*
X30583D02*
X36552D01*
X22074D02*
X28170D01*
X110212Y314372D02*
X115800D01*
X98401D02*
X99290D01*
X71223D02*
X72112D01*
X68302D02*
X69191D01*
X53951D02*
X62968D01*
X38076D02*
X49633D01*
X30583D02*
X36552D01*
X22074D02*
X28170D01*
X110212Y314499D02*
X115927D01*
X98401D02*
X99290D01*
X71223D02*
X72112D01*
X68302D02*
X69191D01*
X54078D02*
X62841D01*
X38076D02*
X49379D01*
X30583D02*
X36552D01*
X22074D02*
X28170D01*
X110212Y314626D02*
X115927D01*
X98401D02*
X99290D01*
X67413D02*
X72112D01*
X54205D02*
X62587D01*
X38076D02*
X49252D01*
X30583D02*
X36552D01*
X22074D02*
X28170D01*
X110212Y314753D02*
X116054D01*
X98401D02*
X99290D01*
X67413D02*
X72112D01*
X54459D02*
X62460D01*
X38076D02*
X48998D01*
X30583D02*
X36552D01*
X22074D02*
X28170D01*
X110212Y314880D02*
X116054D01*
X97766D02*
X99290D01*
X67413D02*
X72112D01*
X54840D02*
X62079D01*
X38076D02*
X48744D01*
X30583D02*
X36552D01*
X22074D02*
X28170D01*
X110212Y315007D02*
X116054D01*
X97766D02*
X99290D01*
X67413D02*
X72112D01*
X55475D02*
X61444D01*
X38076D02*
X48109D01*
X30583D02*
X36552D01*
X22074D02*
X28170D01*
X110212Y315134D02*
X116181D01*
X97766D02*
X99290D01*
X67413D02*
X72112D01*
X110339Y315261D02*
X116181D01*
X97766D02*
X99290D01*
X67413D02*
X72112D01*
X110339Y315388D02*
X116181D01*
X97766D02*
X99290D01*
X110339Y315515D02*
X116308D01*
X97766D02*
X99290D01*
X110339Y315642D02*
X116308D01*
X110339Y315769D02*
X116308D01*
X110339Y315896D02*
X116435D01*
X110339Y316023D02*
X116435D01*
X110466Y316150D02*
X116562D01*
X110466Y316277D02*
X116562D01*
X110466Y316404D02*
X116562D01*
X110466Y316531D02*
X116689D01*
X110466Y316658D02*
X116689D01*
X110466Y316785D02*
X116689D01*
X110466Y316912D02*
X116816D01*
X110593Y317039D02*
X116816D01*
X110593Y317166D02*
X116816D01*
X110593Y317293D02*
X116943D01*
X110593Y317420D02*
X116943D01*
X110593Y317547D02*
X116943D01*
X110593Y317674D02*
X117070D01*
X110720Y317801D02*
X117070D01*
X110720Y317928D02*
X117197D01*
X110720Y318055D02*
X117197D01*
X110720Y318182D02*
X117197D01*
X110720Y318309D02*
X117324D01*
X110720Y318436D02*
X117324D01*
X110720Y318563D02*
X117324D01*
X110847Y318690D02*
X117451D01*
X110847Y318817D02*
X117451D01*
X110847Y318944D02*
X117451D01*
X110847Y319071D02*
X117578D01*
X110847Y319198D02*
X117578D01*
X110847Y319325D02*
X117705D01*
X110847Y319452D02*
X117705D01*
X110974Y319579D02*
X117705D01*
X110974Y319706D02*
X117832D01*
X110974Y319833D02*
X117832D01*
X102084D02*
X104116D01*
X48109D02*
X50268D01*
X110974Y319960D02*
X117832D01*
X101322D02*
X104878D01*
X47474D02*
X50903D01*
X110974Y320087D02*
X117959D01*
X100941D02*
X105259D01*
X46966D02*
X51284D01*
X110974Y320214D02*
X117959D01*
X100560D02*
X105640D01*
X46585D02*
X51665D01*
X110974Y320341D02*
X117959D01*
X100179D02*
X106021D01*
X46331D02*
X52046D01*
X111101Y320468D02*
X118086D01*
X99925D02*
X106275D01*
X46077D02*
X52300D01*
X111101Y320595D02*
X118086D01*
X99671D02*
X106529D01*
X45823D02*
X52554D01*
X111101Y320722D02*
X118086D01*
X99544D02*
X106656D01*
X45569D02*
X52808D01*
X111101Y320849D02*
X118213D01*
X99290D02*
X106910D01*
X45315D02*
X52935D01*
X111101Y320976D02*
X118213D01*
X99036D02*
X107164D01*
X45188D02*
X53189D01*
X111101Y321103D02*
X118340D01*
X98909D02*
X107291D01*
X44934D02*
X53316D01*
X111228Y321230D02*
X118340D01*
X98782D02*
X107418D01*
X44807D02*
X53570D01*
X111228Y321357D02*
X118340D01*
X98528D02*
X107672D01*
X44680D02*
X53697D01*
X111228Y321484D02*
X118467D01*
X98401D02*
X107799D01*
X44553D02*
X53824D01*
X111228Y321611D02*
X118467D01*
X98274D02*
X107926D01*
X44299D02*
X53951D01*
X111228Y321738D02*
X118467D01*
X98147D02*
X108053D01*
X44172D02*
X54078D01*
X111228Y321865D02*
X118594D01*
X98020D02*
X108180D01*
X44045D02*
X54205D01*
X111228Y321992D02*
X118594D01*
X97893D02*
X108307D01*
X43918D02*
X54332D01*
X111355Y322119D02*
X118594D01*
X97766D02*
X108434D01*
X43791D02*
X54459D01*
X111355Y322246D02*
X118721D01*
X97639D02*
X108561D01*
X43791D02*
X54586D01*
X111355Y322373D02*
X118721D01*
X97512D02*
X108688D01*
X43664D02*
X54713D01*
X111355Y322500D02*
X128500D01*
X97512D02*
X108688D01*
X60809D02*
X95353D01*
X43537D02*
X54840D01*
X23852D02*
X34012D01*
X111355Y322627D02*
X128500D01*
X97385D02*
X108815D01*
X60809D02*
X95226D01*
X43410D02*
X54840D01*
X23344D02*
X34139D01*
X111355Y322754D02*
X128500D01*
X97258D02*
X108942D01*
X60936D02*
X95226D01*
X43283D02*
X54967D01*
X23090D02*
X34139D01*
X111355Y322881D02*
X128500D01*
X97131D02*
X109069D01*
X60936D02*
X95099D01*
X43283D02*
X55094D01*
X22963D02*
X34139D01*
X111482Y323008D02*
X128500D01*
X97131D02*
X109069D01*
X60936D02*
X95099D01*
X43156D02*
X55221D01*
X22709D02*
X34139D01*
X111482Y323135D02*
X128500D01*
X97004D02*
X109196D01*
X61063D02*
X94972D01*
X43029D02*
X55221D01*
X22582D02*
X34139D01*
X111482Y323262D02*
X128627D01*
X97004D02*
X109196D01*
X61063D02*
X94972D01*
X43029D02*
X55348D01*
X22455D02*
X34012D01*
X111482Y323389D02*
X128627D01*
X96877D02*
X109323D01*
X61190D02*
X94972D01*
X42902D02*
X55348D01*
X22328D02*
X34012D01*
X111482Y323516D02*
X128627D01*
X96750D02*
X109450D01*
X61190D02*
X94845D01*
X42902D02*
X55475D01*
X22201D02*
X34012D01*
X111482Y323643D02*
X128627D01*
X96750D02*
X109450D01*
X61190D02*
X94845D01*
X42775D02*
X55475D01*
X22201D02*
X33885D01*
X111482Y323770D02*
X128627D01*
X96623D02*
X109577D01*
X61317D02*
X94718D01*
X42775D02*
X55602D01*
X22201D02*
X33885D01*
X111609Y323897D02*
X128627D01*
X96623D02*
X109577D01*
X61317D02*
X94718D01*
X42648D02*
X55602D01*
X22201D02*
X33885D01*
X111609Y324024D02*
X128627D01*
X96496D02*
X109704D01*
X61444D02*
X94718D01*
X42648D02*
X55729D01*
X22201D02*
X33885D01*
X111609Y324151D02*
X128754D01*
X96496D02*
X109704D01*
X61444D02*
X94591D01*
X42521D02*
X55729D01*
X22201D02*
X34266D01*
X111609Y324278D02*
X128754D01*
X96496D02*
X109704D01*
X61444D02*
X94591D01*
X42521D02*
X55856D01*
X22201D02*
X34901D01*
X111609Y324405D02*
X128754D01*
X96369D02*
X109831D01*
X61571D02*
X94591D01*
X42521D02*
X55856D01*
X22328D02*
X35663D01*
X111609Y324532D02*
X128754D01*
X96369D02*
X109831D01*
X61571D02*
X94591D01*
X42394D02*
X55856D01*
X22328D02*
X36552D01*
X111736Y324659D02*
X128754D01*
X96369D02*
X109831D01*
X61698D02*
X94464D01*
X42394D02*
X55983D01*
X22455D02*
X37441D01*
X111736Y324786D02*
X128754D01*
X96242D02*
X109958D01*
X61698D02*
X94464D01*
X42394D02*
X55983D01*
X22582D02*
X38457D01*
X111736Y324913D02*
X128754D01*
X96242D02*
X109958D01*
X61825D02*
X94464D01*
X42267D02*
X55983D01*
X22709D02*
X39600D01*
X111736Y325040D02*
X128881D01*
X96242D02*
X109958D01*
X61825D02*
X94464D01*
X42267D02*
X56110D01*
X22963D02*
X40489D01*
X111736Y325167D02*
X128881D01*
X96115D02*
X110085D01*
X61825D02*
X94337D01*
X42267D02*
X56110D01*
X23090D02*
X40489D01*
X111863Y325294D02*
X128881D01*
X96115D02*
X110085D01*
X61952D02*
X94337D01*
X42267D02*
X56110D01*
X23217D02*
X40489D01*
X111863Y325421D02*
X128881D01*
X96115D02*
X110085D01*
X61952D02*
X94337D01*
X42140D02*
X56110D01*
X23471D02*
X40362D01*
X111863Y325548D02*
X128881D01*
X96115D02*
X110085D01*
X62079D02*
X94337D01*
X42140D02*
X56110D01*
X23725D02*
X40362D01*
X111863Y325675D02*
X128881D01*
X96115D02*
X110085D01*
X62079D02*
X94337D01*
X42140D02*
X56237D01*
X23979D02*
X40362D01*
X111863Y325802D02*
X128881D01*
X96115D02*
X110085D01*
X62079D02*
X94210D01*
X42140D02*
X56237D01*
X24233D02*
X40362D01*
X111990Y325929D02*
X129008D01*
X95988D02*
X110212D01*
X62206D02*
X94210D01*
X42140D02*
X56237D01*
X24487D02*
X40362D01*
X111990Y326056D02*
X129008D01*
X95988D02*
X110212D01*
X62206D02*
X94210D01*
X42140D02*
X56237D01*
X24868D02*
X40235D01*
X111990Y326183D02*
X129008D01*
X95988D02*
X110212D01*
X62333D02*
X94210D01*
X42140D02*
X56237D01*
X25122D02*
X40235D01*
X111990Y326310D02*
X129008D01*
X95988D02*
X110212D01*
X62333D02*
X94210D01*
X42013D02*
X56237D01*
X25376D02*
X40235D01*
X111990Y326437D02*
X129008D01*
X95988D02*
X110212D01*
X62206D02*
X94210D01*
X42013D02*
X56237D01*
X25757D02*
X40235D01*
X111990Y326564D02*
X129008D01*
X95988D02*
X110212D01*
X62206D02*
X94210D01*
X58142D02*
X58269D01*
X42013D02*
X56237D01*
X26138D02*
X40235D01*
X111990Y326691D02*
X129135D01*
X95988D02*
X110212D01*
X62079D02*
X94210D01*
X58142D02*
X60301D01*
X42013D02*
X56237D01*
X26519D02*
X40235D01*
X111990Y326818D02*
X129135D01*
X95988D02*
X110212D01*
X58142D02*
X94210D01*
X42013D02*
X56237D01*
X26900D02*
X40235D01*
X111990Y326945D02*
X129135D01*
X95988D02*
X110212D01*
X58142D02*
X94210D01*
X42013D02*
X56237D01*
X27281D02*
X40235D01*
X111990Y327072D02*
X129135D01*
X95988D02*
X110212D01*
X58142D02*
X94210D01*
X42013D02*
X56237D01*
X27662D02*
X40235D01*
X111990Y327199D02*
X129135D01*
X95988D02*
X110212D01*
X58142D02*
X94210D01*
X42013D02*
X56237D01*
X28043D02*
X40235D01*
X112117Y327326D02*
X129135D01*
X95988D02*
X110212D01*
X58015D02*
X94210D01*
X42013D02*
X56237D01*
X28551D02*
X40235D01*
X112117Y327453D02*
X129135D01*
X95988D02*
X110212D01*
X58015D02*
X94210D01*
X42013D02*
X56237D01*
X28932D02*
X40235D01*
X112117Y327580D02*
X129262D01*
X95988D02*
X110212D01*
X58015D02*
X94210D01*
X42140D02*
X56237D01*
X29440D02*
X40235D01*
X112117Y327707D02*
X129262D01*
X95988D02*
X110212D01*
X58015D02*
X94210D01*
X42140D02*
X56237D01*
X29821D02*
X40235D01*
X112117Y327834D02*
X129262D01*
X95988D02*
X110212D01*
X58015D02*
X94210D01*
X42140D02*
X56237D01*
X30329D02*
X40362D01*
X112117Y327961D02*
X129262D01*
X96115D02*
X110085D01*
X58015D02*
X94210D01*
X42140D02*
X56237D01*
X30837D02*
X40362D01*
X112244Y328088D02*
X129262D01*
X96115D02*
X110085D01*
X58015D02*
X94337D01*
X42140D02*
X56237D01*
X31345D02*
X40362D01*
X112244Y328215D02*
X129262D01*
X96115D02*
X110085D01*
X58015D02*
X94337D01*
X42140D02*
X56110D01*
X31853D02*
X40362D01*
X112244Y328342D02*
X129262D01*
X96115D02*
X110085D01*
X57888D02*
X94337D01*
X42140D02*
X56110D01*
X32361D02*
X40362D01*
X112244Y328469D02*
X129389D01*
X96115D02*
X110085D01*
X57888D02*
X94337D01*
X42267D02*
X56110D01*
X32869D02*
X40489D01*
X112244Y328596D02*
X129389D01*
X96115D02*
X110085D01*
X57888D02*
X94337D01*
X42267D02*
X56110D01*
X33504D02*
X40489D01*
X112244Y328723D02*
X129389D01*
X96242D02*
X109958D01*
X57888D02*
X94464D01*
X42267D02*
X56110D01*
X34012D02*
X40489D01*
X112244Y328850D02*
X129389D01*
X96242D02*
X109958D01*
X57761D02*
X94464D01*
X42267D02*
X55983D01*
X34520D02*
X40489D01*
X112371Y328977D02*
X129389D01*
X96242D02*
X109958D01*
X57761D02*
X94464D01*
X42394D02*
X55983D01*
X35155D02*
X40489D01*
X112371Y329104D02*
X129389D01*
X96369D02*
X109831D01*
X57761D02*
X94464D01*
X42394D02*
X55983D01*
X35790D02*
X40616D01*
X112371Y329231D02*
X129389D01*
X96369D02*
X109831D01*
X57761D02*
X94591D01*
X42394D02*
X55856D01*
X36298D02*
X40616D01*
X112371Y329358D02*
X129516D01*
X96369D02*
X109831D01*
X57634D02*
X94591D01*
X42521D02*
X55856D01*
X36933D02*
X40616D01*
X112371Y329485D02*
X129516D01*
X96496D02*
X109704D01*
X57634D02*
X94591D01*
X42521D02*
X55856D01*
X37568D02*
X40616D01*
X112371Y329612D02*
X129516D01*
X96496D02*
X109704D01*
X57634D02*
X94591D01*
X42521D02*
X55729D01*
X38203D02*
X40743D01*
X112371Y329739D02*
X129516D01*
X96496D02*
X109704D01*
X57634D02*
X94718D01*
X42648D02*
X55729D01*
X38838D02*
X40743D01*
X112498Y329866D02*
X129516D01*
X96623D02*
X109577D01*
X57507D02*
X94718D01*
X42648D02*
X55602D01*
X39473D02*
X40743D01*
X112498Y329993D02*
X129516D01*
X96623D02*
X109577D01*
X57507D02*
X94718D01*
X42775D02*
X55602D01*
X40235D02*
X40870D01*
X112498Y330120D02*
X129643D01*
X96750D02*
X109450D01*
X57507D02*
X94845D01*
X42775D02*
X55475D01*
X112498Y330247D02*
X129643D01*
X96750D02*
X109450D01*
X57380D02*
X94845D01*
X42902D02*
X55475D01*
X112498Y330374D02*
X129643D01*
X96877D02*
X109323D01*
X57380D02*
X94972D01*
X42902D02*
X55348D01*
X112498Y330501D02*
X129643D01*
X97004D02*
X109196D01*
X57253D02*
X94972D01*
X43029D02*
X55348D01*
X112498Y330628D02*
X129643D01*
X97004D02*
X109196D01*
X57253D02*
X94972D01*
X43029D02*
X55221D01*
X112625Y330755D02*
X129643D01*
X97131D02*
X109069D01*
X57126D02*
X95099D01*
X43156D02*
X55221D01*
X112625Y330882D02*
X129643D01*
X97131D02*
X109069D01*
X57126D02*
X95099D01*
X43283D02*
X55094D01*
X112625Y331009D02*
X129770D01*
X97258D02*
X108942D01*
X56999D02*
X95226D01*
X43283D02*
X54967D01*
X112625Y331136D02*
X129770D01*
X97385D02*
X108815D01*
X56999D02*
X95226D01*
X43410D02*
X54840D01*
X112625Y331263D02*
X129770D01*
X97512D02*
X108688D01*
X56872D02*
X95353D01*
X43537D02*
X54840D01*
X112625Y331390D02*
X129770D01*
X110720D02*
X110847D01*
X97512D02*
X108688D01*
X56872D02*
X95480D01*
X43664D02*
X54713D01*
X112752Y331517D02*
X129770D01*
X110720D02*
X110974D01*
X97639D02*
X108561D01*
X56745D02*
X95480D01*
X43791D02*
X54586D01*
X112752Y331644D02*
X129770D01*
X110593D02*
X110974D01*
X97766D02*
X108434D01*
X56618D02*
X95607D01*
X43791D02*
X54459D01*
X112752Y331771D02*
X129770D01*
X110466D02*
X110974D01*
X97893D02*
X108307D01*
X56618D02*
X95734D01*
X43918D02*
X54332D01*
X112752Y331898D02*
X129897D01*
X110466D02*
X110974D01*
X98020D02*
X108180D01*
X56491D02*
X95734D01*
X44045D02*
X54205D01*
X112752Y332025D02*
X129897D01*
X110339D02*
X110974D01*
X98147D02*
X108053D01*
X56364D02*
X95861D01*
X44172D02*
X54078D01*
X112752Y332152D02*
X129897D01*
X110212D02*
X110974D01*
X98274D02*
X107926D01*
X56364D02*
X95988D01*
X44299D02*
X53951D01*
X112752Y332279D02*
X129897D01*
X110212D02*
X110974D01*
X98401D02*
X107799D01*
X56237D02*
X95988D01*
X44553D02*
X53824D01*
X112879Y332406D02*
X129897D01*
X110085D02*
X111101D01*
X98528D02*
X107672D01*
X56110D02*
X96115D01*
X44680D02*
X53697D01*
X112879Y332533D02*
X129897D01*
X109958D02*
X111101D01*
X98782D02*
X107418D01*
X56364D02*
X96242D01*
X44807D02*
X53570D01*
X112879Y332660D02*
X129897D01*
X109831D02*
X111101D01*
X98909D02*
X107291D01*
X57380D02*
X96369D01*
X44934D02*
X53316D01*
X112879Y332787D02*
X130024D01*
X109704D02*
X111101D01*
X99036D02*
X107164D01*
X58396D02*
X96496D01*
X45188D02*
X53189D01*
X112879Y332914D02*
X130024D01*
X109704D02*
X111101D01*
X99290D02*
X106910D01*
X59412D02*
X96496D01*
X45315D02*
X52935D01*
X112879Y333041D02*
X130024D01*
X109577D02*
X111101D01*
X99544D02*
X106656D01*
X60428D02*
X96623D01*
X45569D02*
X52808D01*
X112879Y333168D02*
X130024D01*
X109450D02*
X111228D01*
X99671D02*
X106529D01*
X61571D02*
X96750D01*
X45823D02*
X52554D01*
X113006Y333295D02*
X130024D01*
X109323D02*
X111228D01*
X99925D02*
X106275D01*
X62714D02*
X96877D01*
X46077D02*
X52300D01*
X113006Y333422D02*
X130024D01*
X109196D02*
X111228D01*
X100179D02*
X106021D01*
X63857D02*
X97004D01*
X46331D02*
X52046D01*
X113006Y333549D02*
X130151D01*
X108942D02*
X111228D01*
X100560D02*
X105640D01*
X65127D02*
X97258D01*
X46585D02*
X51665D01*
X113006Y333676D02*
X130151D01*
X108815D02*
X111228D01*
X100941D02*
X105259D01*
X66524D02*
X97385D01*
X46966D02*
X51284D01*
X113006Y333803D02*
X130151D01*
X108688D02*
X111228D01*
X101322D02*
X104878D01*
X67921D02*
X97512D01*
X47474D02*
X50903D01*
X113006Y333930D02*
X130151D01*
X108561D02*
X111228D01*
X102084D02*
X104116D01*
X69572D02*
X97639D01*
X48109D02*
X50268D01*
X122404Y334057D02*
X130151D01*
X108307D02*
X111355D01*
X73128D02*
X97893D01*
X122404Y334184D02*
X130151D01*
X108180D02*
X111355D01*
X76684D02*
X98020D01*
X122531Y334311D02*
X130151D01*
X107926D02*
X111355D01*
X76938D02*
X98274D01*
X122531Y334438D02*
X130278D01*
X107799D02*
X111355D01*
X77065D02*
X98401D01*
X122531Y334565D02*
X130278D01*
X107545D02*
X111482D01*
X77192D02*
X98655D01*
X122658Y334692D02*
X130278D01*
X107418D02*
X111482D01*
X77319D02*
X98782D01*
X122658Y334819D02*
X130278D01*
X107291D02*
X111482D01*
X77446D02*
X99036D01*
X122658Y334946D02*
X130278D01*
X107291D02*
X111609D01*
X77446D02*
X99290D01*
X122785Y335073D02*
X130278D01*
X107291D02*
X111736D01*
X77573D02*
X99671D01*
X122785Y335200D02*
X130278D01*
X107418D02*
X111863D01*
X77573D02*
X99925D01*
X122912Y335327D02*
X130405D01*
X107418D02*
X111990D01*
X77700D02*
X100306D01*
X122912Y335454D02*
X130405D01*
X107418D02*
X112117D01*
X105386D02*
X105640D01*
X77700D02*
X100814D01*
X122912Y335581D02*
X130405D01*
X107545D02*
X112244D01*
X104878D02*
X105640D01*
X77827D02*
X101322D01*
X123039Y335708D02*
X130405D01*
X107545D02*
X112752D01*
X104243D02*
X105640D01*
X77827D02*
X101957D01*
X123039Y335835D02*
X130405D01*
X107672D02*
X121134D01*
X77954D02*
X105767D01*
X123039Y335962D02*
X130405D01*
X107672D02*
X121261D01*
X77954D02*
X105767D01*
X123166Y336089D02*
X130405D01*
X107672D02*
X121261D01*
X77954D02*
X105894D01*
X123166Y336216D02*
X130532D01*
X107799D02*
X121388D01*
X78081D02*
X105894D01*
X123293Y336343D02*
X130532D01*
X107799D02*
X121388D01*
X78081D02*
X105894D01*
X123293Y336470D02*
X130532D01*
X107799D02*
X121388D01*
X78208D02*
X106021D01*
X123293Y336597D02*
X130532D01*
X107926D02*
X121515D01*
X78208D02*
X106021D01*
X123420Y336724D02*
X130532D01*
X107926D02*
X121515D01*
X78335D02*
X106021D01*
X123420Y336851D02*
X130532D01*
X108053D02*
X121515D01*
X78462D02*
X106148D01*
X123420Y336978D02*
X130659D01*
X108053D02*
X121642D01*
X78589D02*
X106148D01*
X123547Y337105D02*
X130659D01*
X108053D02*
X121642D01*
X78970D02*
X106275D01*
X123547Y337232D02*
X130659D01*
X108180D02*
X121769D01*
X80240D02*
X106275D01*
X123674Y337359D02*
X130659D01*
X108180D02*
X121769D01*
X81510D02*
X106275D01*
X123674Y337486D02*
X130659D01*
X108307D02*
X121769D01*
X82780D02*
X106402D01*
X123674Y337613D02*
X130659D01*
X108307D02*
X121896D01*
X84050D02*
X106402D01*
X123801Y337740D02*
X130659D01*
X108307D02*
X121896D01*
X84939D02*
X106402D01*
X123801Y337867D02*
X130786D01*
X108434D02*
X121896D01*
X85193D02*
X106529D01*
X123801Y337994D02*
X130786D01*
X108434D02*
X122023D01*
X85193D02*
X106529D01*
X123928Y338121D02*
X130786D01*
X108434D02*
X122023D01*
X85320D02*
X106656D01*
X123928Y338248D02*
X130786D01*
X108561D02*
X122150D01*
X85320D02*
X106656D01*
X123928Y338375D02*
X130786D01*
X108561D02*
X122150D01*
X85320D02*
X106656D01*
X124055Y338502D02*
X130786D01*
X108688D02*
X122150D01*
X85320D02*
X106783D01*
X124055Y338629D02*
X130786D01*
X108688D02*
X122277D01*
X85193D02*
X106783D01*
X124182Y338756D02*
X130913D01*
X108688D02*
X122277D01*
X85193D02*
X106148D01*
X124182Y338883D02*
X130913D01*
X108815D02*
X122277D01*
X85066D02*
X105640D01*
X124182Y339010D02*
X130913D01*
X108815D02*
X122404D01*
X84939D02*
X105005D01*
X124309Y339137D02*
X130913D01*
X108815D02*
X122404D01*
X84812D02*
X104497D01*
X124309Y339264D02*
X130913D01*
X108942D02*
X122404D01*
X84685D02*
X103862D01*
X124309Y339391D02*
X130913D01*
X108942D02*
X122531D01*
X84685D02*
X103354D01*
X124436Y339518D02*
X130913D01*
X109069D02*
X122531D01*
X84558D02*
X102719D01*
X124436Y339645D02*
X131040D01*
X109069D02*
X122658D01*
X84431D02*
X102211D01*
X124563Y339772D02*
X131040D01*
X109069D02*
X122658D01*
X84304D02*
X101576D01*
X124563Y339899D02*
X131040D01*
X109196D02*
X122658D01*
X84177D02*
X101068D01*
X124563Y340026D02*
X131040D01*
X109196D02*
X122785D01*
X84050D02*
X100433D01*
X124690Y340153D02*
X131040D01*
X109196D02*
X122785D01*
X83923D02*
X99925D01*
X124690Y340280D02*
X131040D01*
X109323D02*
X122785D01*
X83796D02*
X99290D01*
X124690Y340407D02*
X131167D01*
X109323D02*
X122912D01*
X83415D02*
X98782D01*
X124817Y340534D02*
X131167D01*
X109450D02*
X122912D01*
X82272D02*
X98147D01*
X124817Y340661D02*
X131167D01*
X109450D02*
X123039D01*
X81129D02*
X97639D01*
X124944Y340788D02*
X131167D01*
X109450D02*
X123039D01*
X79986D02*
X97004D01*
X124944Y340915D02*
X131167D01*
X109577D02*
X123039D01*
X78716D02*
X96496D01*
X124944Y341042D02*
X131167D01*
X109577D02*
X123166D01*
X77827D02*
X95988D01*
X125071Y341169D02*
X131167D01*
X109577D02*
X123166D01*
X77700D02*
X95353D01*
X125071Y341296D02*
X131294D01*
X109704D02*
X123166D01*
X77573D02*
X94845D01*
X125071Y341423D02*
X131294D01*
X109704D02*
X123293D01*
X77573D02*
X94210D01*
X125198Y341550D02*
X131294D01*
X109831D02*
X123293D01*
X77446D02*
X93702D01*
X125198Y341677D02*
X131294D01*
X109831D02*
X123420D01*
X77319D02*
X93067D01*
X125198Y341804D02*
X131294D01*
X109831D02*
X123420D01*
X77192D02*
X92559D01*
X125325Y341931D02*
X131294D01*
X109958D02*
X123420D01*
X77192D02*
X91924D01*
X125325Y342058D02*
X131294D01*
X109958D02*
X123547D01*
X77065D02*
X91416D01*
X125452Y342185D02*
X131421D01*
X109958D02*
X123547D01*
X76938D02*
X90781D01*
X125452Y342312D02*
X131421D01*
X110085D02*
X123547D01*
X76938D02*
X90273D01*
X125452Y342439D02*
X131421D01*
X110085D02*
X123674D01*
X77065D02*
X89638D01*
X125579Y342566D02*
X131421D01*
X125579Y342693D02*
X131421D01*
X125579Y342820D02*
X131421D01*
X125706Y342947D02*
X131421D01*
X125706Y343074D02*
X131548D01*
X125833Y343201D02*
X131548D01*
X125833Y343328D02*
X131548D01*
X125833Y343455D02*
X131548D01*
X125960Y343582D02*
X131548D01*
X125960Y343709D02*
X131548D01*
X125960Y343836D02*
X131675D01*
X126087Y343963D02*
X131675D01*
X126087Y344090D02*
X131675D01*
X126214Y344217D02*
X131675D01*
X126214Y344344D02*
X131675D01*
X126214Y344471D02*
X131675D01*
X126341Y344598D02*
X131675D01*
X126341Y344725D02*
X131802D01*
X126341Y344852D02*
X131802D01*
X126468Y344979D02*
X131802D01*
X126468Y345106D02*
X131802D01*
X126468Y345233D02*
X131802D01*
X126595Y345360D02*
X131802D01*
X126595Y345487D02*
X131802D01*
X126722Y345614D02*
X131929D01*
X126722Y345741D02*
X131929D01*
X126722Y345868D02*
X131929D01*
X126849Y345995D02*
X131929D01*
X126849Y346122D02*
X131929D01*
X126849Y346249D02*
X131929D01*
X126976Y346376D02*
X131929D01*
X126976Y346503D02*
X132056D01*
X127103Y346630D02*
X132056D01*
X127103Y346757D02*
X132056D01*
X127103Y346884D02*
X132056D01*
X127230Y347011D02*
X132056D01*
X127230Y347138D02*
X132056D01*
X127230Y347265D02*
X132183D01*
X127357Y347392D02*
X132183D01*
X127357Y347519D02*
X132183D01*
X127484Y347646D02*
X132183D01*
X127484Y347773D02*
X132183D01*
X127484Y347900D02*
X132183D01*
X127611Y348027D02*
X132183D01*
X127611Y348154D02*
X132310D01*
X127611Y348281D02*
X132310D01*
X127738Y348408D02*
X132310D01*
X127738Y348535D02*
X132310D01*
X127738Y348662D02*
X132310D01*
X127865Y348789D02*
X132310D01*
X127865Y348916D02*
X132310D01*
X127992Y349043D02*
X132437D01*
X127992Y349170D02*
X132437D01*
X127992Y349297D02*
X132437D01*
X128119Y349424D02*
X132437D01*
X128119Y349551D02*
X132437D01*
X128119Y349678D02*
X132437D01*
X128246Y349805D02*
X132437D01*
X128246Y349932D02*
X132564D01*
X128373Y350059D02*
X132564D01*
X128373Y350186D02*
X132564D01*
X128373Y350313D02*
X132564D01*
X128500Y350440D02*
X132564D01*
X128500Y350567D02*
X132564D01*
X128500Y350694D02*
X132691D01*
X128627Y350821D02*
X132691D01*
X128627Y350948D02*
X132691D01*
X128754Y351075D02*
X132691D01*
X128754Y351202D02*
X132691D01*
X128754Y351329D02*
X132691D01*
X128881Y351456D02*
X132691D01*
X128881Y351583D02*
X132818D01*
X128881Y351710D02*
X132818D01*
X129008Y351837D02*
X132818D01*
X129008Y351964D02*
X132818D01*
X129008Y352091D02*
X132818D01*
X129135Y352218D02*
X132818D01*
X129135Y352345D02*
X132818D01*
X129262Y352472D02*
X132945D01*
X129262Y352599D02*
X132945D01*
X129262Y352726D02*
X132945D01*
X129389Y352853D02*
X132945D01*
X129389Y352980D02*
X132945D01*
X129389Y353107D02*
X132945D01*
X129516Y353234D02*
X132945D01*
X129516Y353361D02*
X133072D01*
X129643Y353488D02*
X133072D01*
X129643Y353615D02*
X133072D01*
X129643Y353742D02*
X133072D01*
X129770Y353869D02*
X133072D01*
X129770Y353996D02*
X133072D01*
X129770Y354123D02*
X133199D01*
X129897Y354250D02*
X133199D01*
X129897Y354377D02*
X133199D01*
X130024Y354504D02*
X133199D01*
X130024Y354631D02*
X133199D01*
X130024Y354758D02*
X133199D01*
X130151Y354885D02*
X133199D01*
X130151Y355012D02*
X133326D01*
X130151Y355139D02*
X133326D01*
X130278Y355266D02*
X133326D01*
X130278Y355393D02*
X133326D01*
X130278Y355520D02*
X133326D01*
X130405Y355647D02*
X133326D01*
X130405Y355774D02*
X133326D01*
X130532Y355901D02*
X133453D01*
X130532Y356028D02*
X133453D01*
X130532Y356155D02*
X133453D01*
X130659Y356282D02*
X133453D01*
X130659Y356409D02*
X133453D01*
X130659Y356536D02*
X133453D01*
X130786Y356663D02*
X133453D01*
X130786Y356790D02*
X133580D01*
X130913Y356917D02*
X133580D01*
X130913Y357044D02*
X133580D01*
X130913Y357171D02*
X133580D01*
X131040Y357298D02*
X133580D01*
X131040Y357425D02*
X133580D01*
X131040Y357552D02*
X133707D01*
X131167Y357679D02*
X133707D01*
X131167Y357806D02*
X133707D01*
X131294Y357933D02*
X133707D01*
X131294Y358060D02*
X133707D01*
X131294Y358187D02*
X133707D01*
X131421Y358314D02*
X133707D01*
X131421Y358441D02*
X133834D01*
X131421Y358568D02*
X133834D01*
X131548Y358695D02*
X133834D01*
X131548Y358822D02*
X133834D01*
X131548Y358949D02*
X133834D01*
X131675Y359076D02*
X133834D01*
X131675Y359203D02*
X133834D01*
X131802Y359330D02*
X133961D01*
X131802Y359457D02*
X133961D01*
X131802Y359584D02*
X133961D01*
X131929Y359711D02*
X133961D01*
X131929Y359838D02*
X133961D01*
X131929Y359965D02*
X133961D01*
X132056Y360092D02*
X133961D01*
X132056Y360219D02*
X134088D01*
X132183Y360346D02*
X134088D01*
X132183Y360473D02*
X134088D01*
X132183Y360600D02*
X134088D01*
X132310Y360727D02*
X134088D01*
X132310Y360854D02*
X134088D01*
X132310Y360981D02*
X134215D01*
X132437Y361108D02*
X134215D01*
X132437Y361235D02*
X134215D01*
X132564Y361362D02*
X134215D01*
X132564Y361489D02*
X134215D01*
X132564Y361616D02*
X134215D01*
X132691Y361743D02*
X134215D01*
X132691Y361870D02*
X134342D01*
X132691Y361997D02*
X134342D01*
X132818Y362124D02*
X134342D01*
X132818Y362251D02*
X134342D01*
X132818Y362378D02*
X134342D01*
X132945Y362505D02*
X134342D01*
X132945Y362632D02*
X134342D01*
X133072Y362759D02*
X134469D01*
X133072Y362886D02*
X134469D01*
X133072Y363013D02*
X134469D01*
X133199Y363140D02*
X134469D01*
X133199Y363267D02*
X134469D01*
X133199Y363394D02*
X134469D01*
X133326Y363521D02*
X134469D01*
X133326Y363648D02*
X134596D01*
X133453Y363775D02*
X134596D01*
X133453Y363902D02*
X134596D01*
X133453Y364029D02*
X134596D01*
X133580Y364156D02*
X134596D01*
X133580Y364283D02*
X134596D01*
X133580Y364410D02*
X134723D01*
X133707Y364537D02*
X134723D01*
X133707Y364664D02*
X134723D01*
X133834Y364791D02*
X134723D01*
X133834Y364918D02*
X134723D01*
X133834Y365045D02*
X134723D01*
X133961Y365172D02*
X134723D01*
X133961Y365299D02*
X134850D01*
X133961Y365426D02*
X134850D01*
X134088Y365553D02*
X134850D01*
X134088Y365680D02*
X134850D01*
X134088Y365807D02*
X134850D01*
X134215Y365934D02*
X134850D01*
X134215Y366061D02*
X134850D01*
X134342Y366188D02*
X134977D01*
X134342Y366315D02*
X134977D01*
X134342Y366442D02*
X134977D01*
X134469Y366569D02*
X134977D01*
X134469Y366696D02*
X134977D01*
X134469Y366823D02*
X134977D01*
X134596Y366950D02*
X134977D01*
X134596Y367077D02*
X135104D01*
X134723Y367204D02*
X135104D01*
X134723Y367331D02*
X135104D01*
X134723Y367458D02*
X135104D01*
X134850Y367585D02*
X135104D01*
X134850Y367712D02*
X135104D01*
X134850Y367839D02*
X135231D01*
X134977Y367966D02*
X135231D01*
X134977Y368093D02*
X135231D01*
X251075Y15079D02*
X251583D01*
X205482D02*
X205990D01*
X250948Y15206D02*
X251837D01*
X205228D02*
X206117D01*
X250694Y15333D02*
X251964D01*
X205101D02*
X206371D01*
X250567Y15460D02*
X252091D01*
X204974D02*
X206498D01*
X250313Y15587D02*
X252218D01*
X204847D02*
X206752D01*
X250186Y15714D02*
X252345D01*
X204720D02*
X206879D01*
X249932Y15841D02*
X252472D01*
X204593D02*
X207133D01*
X249805Y15968D02*
X252599D01*
X204466D02*
X207260D01*
X249551Y16095D02*
X252726D01*
X204339D02*
X207514D01*
X249424Y16222D02*
X252853D01*
X204212D02*
X207641D01*
X249170Y16349D02*
X252980D01*
X204085D02*
X207895D01*
X249043Y16476D02*
X253107D01*
X203958D02*
X208022D01*
X248916Y16603D02*
X253234D01*
X203831D02*
X208149D01*
X248662Y16730D02*
X253361D01*
X203704D02*
X208403D01*
X248535Y16857D02*
X253488D01*
X203577D02*
X208530D01*
X248281Y16984D02*
X253615D01*
X203450D02*
X208784D01*
X248154Y17111D02*
X253742D01*
X203323D02*
X208911D01*
X247900Y17238D02*
X253869D01*
X203196D02*
X209165D01*
X247773Y17365D02*
X253996D01*
X203069D02*
X209292D01*
X247519Y17492D02*
X254123D01*
X202942D02*
X209546D01*
X247392Y17619D02*
X254250D01*
X202815D02*
X209673D01*
X247138Y17746D02*
X254377D01*
X202688D02*
X209927D01*
X247011Y17873D02*
X254504D01*
X202561D02*
X210054D01*
X246884Y18000D02*
X254631D01*
X202434D02*
X210181D01*
X246630Y18127D02*
X254758D01*
X202307D02*
X210435D01*
X246503Y18254D02*
X254885D01*
X202180D02*
X210562D01*
X246249Y18381D02*
X255012D01*
X239518D02*
X239772D01*
X217293D02*
X217547D01*
X202053D02*
X210816D01*
X246122Y18508D02*
X255139D01*
X239391D02*
X240026D01*
X217039D02*
X217674D01*
X201926D02*
X210943D01*
X245868Y18635D02*
X255266D01*
X239391D02*
X240280D01*
X216785D02*
X217674D01*
X201799D02*
X211197D01*
X245741Y18762D02*
X255393D01*
X239264D02*
X240534D01*
X216531D02*
X217801D01*
X201672D02*
X211324D01*
X245487Y18889D02*
X255520D01*
X239264D02*
X240788D01*
X216277D02*
X217801D01*
X201545D02*
X211578D01*
X245360Y19016D02*
X255647D01*
X239137D02*
X241042D01*
X216023D02*
X217928D01*
X201418D02*
X211705D01*
X245106Y19143D02*
X255774D01*
X239137D02*
X241296D01*
X215769D02*
X217928D01*
X201291D02*
X211959D01*
X244979Y19270D02*
X255901D01*
X239010D02*
X241550D01*
X215515D02*
X218055D01*
X201164D02*
X212086D01*
X244852Y19397D02*
X256028D01*
X239010D02*
X241804D01*
X215261D02*
X218055D01*
X201037D02*
X212213D01*
X244598Y19524D02*
X256155D01*
X239010D02*
X241931D01*
X215134D02*
X218055D01*
X200910D02*
X212467D01*
X244471Y19651D02*
X256282D01*
X238883D02*
X242185D01*
X214880D02*
X218182D01*
X200783D02*
X212594D01*
X244217Y19778D02*
X256409D01*
X238883D02*
X242439D01*
X214626D02*
X218182D01*
X200656D02*
X212848D01*
X244090Y19905D02*
X256536D01*
X238756D02*
X242693D01*
X214372D02*
X218309D01*
X200529D02*
X212975D01*
X243836Y20032D02*
X256663D01*
X238756D02*
X242947D01*
X214118D02*
X218309D01*
X200402D02*
X213229D01*
X243582Y20159D02*
X256790D01*
X238756D02*
X243328D01*
X213737D02*
X218309D01*
X200275D02*
X213483D01*
X238629Y20286D02*
X256917D01*
X200148D02*
X218436D01*
X238629Y20413D02*
X257044D01*
X200021D02*
X218436D01*
X238502Y20540D02*
X257171D01*
X199894D02*
X218563D01*
X238502Y20667D02*
X257298D01*
X199767D02*
X218563D01*
X238502Y20794D02*
X257425D01*
X199640D02*
X218563D01*
X238375Y20921D02*
X257552D01*
X199513D02*
X218690D01*
X238375Y21048D02*
X257679D01*
X199386D02*
X218690D01*
X238248Y21175D02*
X257806D01*
X199259D02*
X218817D01*
X238248Y21302D02*
X257933D01*
X199132D02*
X218817D01*
X238121Y21429D02*
X258060D01*
X199005D02*
X218944D01*
X238121Y21556D02*
X258187D01*
X198878D02*
X218944D01*
X238121Y21683D02*
X258314D01*
X198751D02*
X218944D01*
X237994Y21810D02*
X258441D01*
X198624D02*
X219071D01*
X237994Y21937D02*
X258441D01*
X198624D02*
X219071D01*
X237867Y22064D02*
X258568D01*
X198497D02*
X219198D01*
X237867Y22191D02*
X258568D01*
X198497D02*
X219198D01*
X237867Y22318D02*
X258441D01*
X198624D02*
X219198D01*
X237740Y22445D02*
X258441D01*
X198624D02*
X219325D01*
X237740Y22572D02*
X258314D01*
X198751D02*
X219325D01*
X237613Y22699D02*
X258314D01*
X198751D02*
X219452D01*
X237613Y22826D02*
X258187D01*
X198878D02*
X219452D01*
X237486Y22953D02*
X258060D01*
X199005D02*
X219579D01*
X237486Y23080D02*
X258060D01*
X199005D02*
X219579D01*
X237486Y23207D02*
X257933D01*
X199132D02*
X219579D01*
X237359Y23334D02*
X257806D01*
X199259D02*
X219706D01*
X237359Y23461D02*
X257806D01*
X199259D02*
X219706D01*
X237232Y23588D02*
X257679D01*
X199386D02*
X219833D01*
X237232Y23715D02*
X257552D01*
X199513D02*
X219833D01*
X237232Y23842D02*
X257425D01*
X199640D02*
X219833D01*
X237105Y23969D02*
X257425D01*
X199640D02*
X219960D01*
X237105Y24096D02*
X257298D01*
X199767D02*
X219960D01*
X236978Y24223D02*
X257171D01*
X199894D02*
X220087D01*
X236978Y24350D02*
X257171D01*
X199894D02*
X220087D01*
X236978Y24477D02*
X257044D01*
X200021D02*
X220087D01*
X236851Y24604D02*
X256917D01*
X200148D02*
X220214D01*
X236851Y24731D02*
X256917D01*
X200148D02*
X220214D01*
X236724Y24858D02*
X256790D01*
X200275D02*
X220341D01*
X236724Y24985D02*
X256663D01*
X200402D02*
X220341D01*
X236597Y25112D02*
X256663D01*
X200402D02*
X220468D01*
X236597Y25239D02*
X256536D01*
X200529D02*
X220468D01*
X236597Y25366D02*
X256409D01*
X200656D02*
X220468D01*
X236470Y25493D02*
X256409D01*
X200656D02*
X220595D01*
X236470Y25620D02*
X256282D01*
X200783D02*
X220595D01*
X236343Y25747D02*
X256155D01*
X200910D02*
X220722D01*
X236343Y25874D02*
X256028D01*
X201037D02*
X220722D01*
X236343Y26001D02*
X256028D01*
X201037D02*
X220722D01*
X236216Y26128D02*
X255901D01*
X201164D02*
X220849D01*
X236216Y26255D02*
X255774D01*
X201291D02*
X220849D01*
X236089Y26382D02*
X255774D01*
X201291D02*
X220976D01*
X236089Y26509D02*
X255647D01*
X201418D02*
X220976D01*
X235962Y26636D02*
X255520D01*
X201545D02*
X221103D01*
X235962Y26763D02*
X255520D01*
X201545D02*
X221103D01*
X235962Y26890D02*
X255393D01*
X201672D02*
X221103D01*
X235835Y27017D02*
X255266D01*
X201799D02*
X221230D01*
X235835Y27144D02*
X255266D01*
X201799D02*
X221230D01*
X235708Y27271D02*
X255139D01*
X201926D02*
X221357D01*
X235708Y27398D02*
X255012D01*
X202053D02*
X221357D01*
X235708Y27525D02*
X255012D01*
X202053D02*
X221357D01*
X235581Y27652D02*
X254885D01*
X202180D02*
X221484D01*
X235581Y27779D02*
X254758D01*
X202307D02*
X221484D01*
X235454Y27906D02*
X254758D01*
X202307D02*
X221611D01*
X235454Y28033D02*
X254631D01*
X202434D02*
X221611D01*
X235454Y28160D02*
X254504D01*
X202561D02*
X221611D01*
X235327Y28287D02*
X254377D01*
X202688D02*
X221738D01*
X235327Y28414D02*
X254377D01*
X202688D02*
X221738D01*
X235200Y28541D02*
X254250D01*
X202815D02*
X221865D01*
X235200Y28668D02*
X254123D01*
X202942D02*
X221865D01*
X235073Y28795D02*
X254123D01*
X202942D02*
X221992D01*
X235073Y28922D02*
X253996D01*
X203069D02*
X221992D01*
X235073Y29049D02*
X253869D01*
X203196D02*
X221992D01*
X234946Y29176D02*
X253869D01*
X203196D02*
X222119D01*
X234946Y29303D02*
X253742D01*
X203323D02*
X222119D01*
X234819Y29430D02*
X253615D01*
X203450D02*
X222246D01*
X234819Y29557D02*
X253615D01*
X203450D02*
X222246D01*
X234819Y29684D02*
X253488D01*
X203577D02*
X222246D01*
X234692Y29811D02*
X253361D01*
X203704D02*
X222373D01*
X234692Y29938D02*
X253361D01*
X203704D02*
X222373D01*
X234565Y30065D02*
X253234D01*
X203831D02*
X222500D01*
X234565Y30192D02*
X253234D01*
X203831D02*
X222500D01*
X234438Y30319D02*
X253234D01*
X203831D02*
X222627D01*
X234438Y30446D02*
X253234D01*
X203831D02*
X222627D01*
X234438Y30573D02*
X253234D01*
X203831D02*
X222627D01*
X234311Y30700D02*
X253361D01*
X203704D02*
X222754D01*
X234311Y30827D02*
X253361D01*
X203704D02*
X222754D01*
X234184Y30954D02*
X253488D01*
X203577D02*
X222881D01*
X234184Y31081D02*
X253488D01*
X203577D02*
X222881D01*
X234184Y31208D02*
X253488D01*
X203577D02*
X222881D01*
X234057Y31335D02*
X253615D01*
X203450D02*
X223008D01*
X234057Y31462D02*
X253615D01*
X203450D02*
X223008D01*
X233930Y31589D02*
X253742D01*
X203323D02*
X223135D01*
X233930Y31716D02*
X253742D01*
X203323D02*
X223135D01*
X233930Y31843D02*
X253742D01*
X203323D02*
X223135D01*
X233803Y31970D02*
X253869D01*
X203196D02*
X223262D01*
X233803Y32097D02*
X253869D01*
X203196D02*
X223262D01*
X233676Y32224D02*
X253996D01*
X203069D02*
X223389D01*
X233676Y32351D02*
X253996D01*
X203069D02*
X223389D01*
X233549Y32478D02*
X253996D01*
X203069D02*
X223516D01*
X233549Y32605D02*
X254123D01*
X202942D02*
X223516D01*
X233549Y32732D02*
X254123D01*
X202942D02*
X223516D01*
X233422Y32859D02*
X254250D01*
X202815D02*
X223643D01*
X233422Y32986D02*
X254250D01*
X202815D02*
X223643D01*
X233295Y33113D02*
X254250D01*
X202815D02*
X223770D01*
X233295Y33240D02*
X254377D01*
X202688D02*
X223770D01*
X233295Y33367D02*
X254377D01*
X202688D02*
X223770D01*
X233168Y33494D02*
X254504D01*
X202561D02*
X223897D01*
X233168Y33621D02*
X254504D01*
X202561D02*
X223897D01*
X233041Y33748D02*
X254504D01*
X202561D02*
X224024D01*
X233041Y33875D02*
X254631D01*
X202434D02*
X224024D01*
X232914Y34002D02*
X254631D01*
X202434D02*
X224151D01*
X232914Y34129D02*
X254758D01*
X202307D02*
X224151D01*
X232914Y34256D02*
X254758D01*
X202307D02*
X224151D01*
X232787Y34383D02*
X254758D01*
X202307D02*
X224278D01*
X232787Y34510D02*
X254885D01*
X202180D02*
X224278D01*
X232660Y34637D02*
X254885D01*
X202180D02*
X224405D01*
X232660Y34764D02*
X255012D01*
X202053D02*
X224405D01*
X232660Y34891D02*
X255012D01*
X202053D02*
X224405D01*
X232787Y35018D02*
X255012D01*
X202053D02*
X224278D01*
X232914Y35145D02*
X255139D01*
X201926D02*
X224151D01*
X233041Y35272D02*
X255139D01*
X201926D02*
X224024D01*
X233295Y35399D02*
X255266D01*
X201799D02*
X223770D01*
X233422Y35526D02*
X255266D01*
X201799D02*
X223643D01*
X233676Y35653D02*
X255266D01*
X201799D02*
X223389D01*
X233803Y35780D02*
X255393D01*
X201672D02*
X223262D01*
X234057Y35907D02*
X255393D01*
X201672D02*
X223008D01*
X234184Y36034D02*
X255520D01*
X201545D02*
X222881D01*
X234311Y36161D02*
X255520D01*
X201545D02*
X222754D01*
X234565Y36288D02*
X255520D01*
X201545D02*
X222500D01*
X234692Y36415D02*
X255647D01*
X201418D02*
X222373D01*
X234819Y36542D02*
X255647D01*
X201418D02*
X222246D01*
X235073Y36669D02*
X255774D01*
X201291D02*
X221992D01*
X235200Y36796D02*
X255774D01*
X201291D02*
X221865D01*
X235327Y36923D02*
X255774D01*
X201291D02*
X221738D01*
X235454Y37050D02*
X255901D01*
X201164D02*
X221611D01*
X235581Y37177D02*
X255901D01*
X201164D02*
X221484D01*
X235708Y37304D02*
X256028D01*
X201037D02*
X221357D01*
X235962Y37431D02*
X256028D01*
X201037D02*
X221103D01*
X236089Y37558D02*
X256028D01*
X201037D02*
X220976D01*
X236216Y37685D02*
X256155D01*
X200910D02*
X220849D01*
X236343Y37812D02*
X256282D01*
X200783D02*
X220722D01*
X236343Y37939D02*
X256282D01*
X200783D02*
X220722D01*
X236470Y38066D02*
X256536D01*
X200529D02*
X220595D01*
X236597Y38193D02*
X257044D01*
X200021D02*
X220468D01*
X236724Y38320D02*
X257679D01*
X199386D02*
X220341D01*
X236851Y38447D02*
X258314D01*
X198751D02*
X220214D01*
X236978Y38574D02*
X259076D01*
X197989D02*
X220087D01*
X236978Y38701D02*
X259711D01*
X197354D02*
X220087D01*
X237105Y38828D02*
X260473D01*
X196592D02*
X219960D01*
X237232Y38955D02*
X261108D01*
X195957D02*
X219833D01*
X237232Y39082D02*
X261743D01*
X195322D02*
X219833D01*
X237359Y39209D02*
X262505D01*
X194560D02*
X219706D01*
X237486Y39336D02*
X263140D01*
X193925D02*
X219579D01*
X237486Y39463D02*
X263775D01*
X193290D02*
X219579D01*
X237613Y39590D02*
X264537D01*
X192528D02*
X219452D01*
X237740Y39717D02*
X265172D01*
X191893D02*
X219325D01*
X237740Y39844D02*
X265680D01*
X191385D02*
X219325D01*
X237867Y39971D02*
X265934D01*
X191131D02*
X219198D01*
X237867Y40098D02*
X265934D01*
X191131D02*
X219198D01*
X237994Y40225D02*
X266061D01*
X191004D02*
X219071D01*
X237994Y40352D02*
X266061D01*
X191004D02*
X219071D01*
X238121Y40479D02*
X266061D01*
X191004D02*
X218944D01*
X238121Y40606D02*
X266061D01*
X191004D02*
X218944D01*
X238248Y40733D02*
X266061D01*
X191004D02*
X218817D01*
X238248Y40860D02*
X266061D01*
X191004D02*
X218817D01*
X238248Y40987D02*
X266061D01*
X191004D02*
X218817D01*
X238375Y41114D02*
X266061D01*
X191004D02*
X218690D01*
X238375Y41241D02*
X266061D01*
X191004D02*
X218690D01*
X238375Y41368D02*
X266061D01*
X191004D02*
X218690D01*
X238502Y41495D02*
X266061D01*
X191004D02*
X218563D01*
X238502Y41622D02*
X266061D01*
X191004D02*
X218563D01*
X238502Y41749D02*
X266061D01*
X191004D02*
X218563D01*
X238629Y41876D02*
X266061D01*
X191004D02*
X218436D01*
X238629Y42003D02*
X266061D01*
X191004D02*
X218436D01*
X238629Y42130D02*
X266061D01*
X191004D02*
X218436D01*
X238756Y42257D02*
X266061D01*
X191004D02*
X218309D01*
X238756Y42384D02*
X266061D01*
X191004D02*
X218309D01*
X238756Y42511D02*
X266061D01*
X191004D02*
X218309D01*
X238756Y42638D02*
X266061D01*
X191004D02*
X218309D01*
X238883Y42765D02*
X266061D01*
X191004D02*
X218182D01*
X238883Y42892D02*
X266061D01*
X191004D02*
X218182D01*
X238883Y43019D02*
X266061D01*
X191004D02*
X218182D01*
X238883Y43146D02*
X266061D01*
X191004D02*
X218182D01*
X238883Y43273D02*
X266061D01*
X191004D02*
X218182D01*
X239010Y43400D02*
X266061D01*
X191004D02*
X218055D01*
X239010Y43527D02*
X266061D01*
X191004D02*
X218055D01*
X239010Y43654D02*
X266061D01*
X191004D02*
X218055D01*
X239010Y43781D02*
X266061D01*
X191004D02*
X218055D01*
X239010Y43908D02*
X266061D01*
X191004D02*
X218055D01*
X239010Y44035D02*
X266061D01*
X191004D02*
X218055D01*
X239010Y44162D02*
X266061D01*
X191004D02*
X218055D01*
X239010Y44289D02*
X266061D01*
X191004D02*
X218055D01*
X239010Y44416D02*
X266061D01*
X191004D02*
X218055D01*
X239010Y44543D02*
X266061D01*
X191004D02*
X218055D01*
X239010Y44670D02*
X266061D01*
X191004D02*
X218055D01*
X239010Y44797D02*
X266061D01*
X191004D02*
X218055D01*
X239137Y44924D02*
X266061D01*
X191004D02*
X217928D01*
X239010Y45051D02*
X266061D01*
X191004D02*
X218055D01*
X239010Y45178D02*
X266061D01*
X191004D02*
X218055D01*
X239010Y45305D02*
X266061D01*
X191004D02*
X218055D01*
X239010Y45432D02*
X266061D01*
X191004D02*
X218055D01*
X239010Y45559D02*
X266061D01*
X191004D02*
X218055D01*
X239010Y45686D02*
X266061D01*
X191004D02*
X218055D01*
X239010Y45813D02*
X266061D01*
X191004D02*
X218055D01*
X239010Y45940D02*
X266061D01*
X191004D02*
X218055D01*
X239010Y46067D02*
X266061D01*
X191004D02*
X218055D01*
X239010Y46194D02*
X266061D01*
X191004D02*
X218055D01*
X239010Y46321D02*
X266061D01*
X191004D02*
X218055D01*
X239010Y46448D02*
X266061D01*
X191004D02*
X218055D01*
X238883Y46575D02*
X266061D01*
X191004D02*
X218182D01*
X238883Y46702D02*
X266061D01*
X191004D02*
X218182D01*
X238883Y46829D02*
X266061D01*
X191004D02*
X218182D01*
X238883Y46956D02*
X266061D01*
X191004D02*
X218182D01*
X238883Y47083D02*
X266061D01*
X191004D02*
X218182D01*
X238883Y47210D02*
X266061D01*
X191004D02*
X218182D01*
X238756Y47337D02*
X266061D01*
X191004D02*
X218309D01*
X238756Y47464D02*
X266061D01*
X191004D02*
X218309D01*
X238756Y47591D02*
X266061D01*
X191004D02*
X218309D01*
X238756Y47718D02*
X266061D01*
X191004D02*
X218309D01*
X238629Y47845D02*
X266061D01*
X191004D02*
X218436D01*
X238629Y47972D02*
X266061D01*
X191004D02*
X218436D01*
X238629Y48099D02*
X266061D01*
X191004D02*
X218436D01*
X238502Y48226D02*
X266061D01*
X191004D02*
X218563D01*
X238502Y48353D02*
X266061D01*
X191004D02*
X218563D01*
X238502Y48480D02*
X266061D01*
X191004D02*
X218563D01*
X238375Y48607D02*
X266061D01*
X191004D02*
X218690D01*
X238375Y48734D02*
X266061D01*
X191004D02*
X218690D01*
X238375Y48861D02*
X266061D01*
X191004D02*
X218690D01*
X238248Y48988D02*
X266061D01*
X191004D02*
X218817D01*
X238248Y49115D02*
X266061D01*
X191004D02*
X218817D01*
X238121Y49242D02*
X266061D01*
X191004D02*
X218944D01*
X238121Y49369D02*
X266061D01*
X191004D02*
X218944D01*
X237994Y49496D02*
X266061D01*
X191004D02*
X219071D01*
X237994Y49623D02*
X266061D01*
X191004D02*
X219071D01*
X237867Y49750D02*
X266061D01*
X191004D02*
X219198D01*
X237867Y49877D02*
X266061D01*
X191004D02*
X219198D01*
X237740Y50004D02*
X265934D01*
X191131D02*
X219325D01*
X237740Y50131D02*
X265807D01*
X191258D02*
X219325D01*
X237613Y50258D02*
X265299D01*
X191766D02*
X219452D01*
X237613Y50385D02*
X264664D01*
X192401D02*
X219452D01*
X237486Y50512D02*
X264029D01*
X193036D02*
X219579D01*
X237359Y50639D02*
X263267D01*
X193798D02*
X219706D01*
X237359Y50766D02*
X262632D01*
X194433D02*
X219706D01*
X237232Y50893D02*
X261997D01*
X195068D02*
X219833D01*
X237105Y51020D02*
X261235D01*
X195830D02*
X219960D01*
X237105Y51147D02*
X260600D01*
X196465D02*
X219960D01*
X236978Y51274D02*
X259838D01*
X197227D02*
X220087D01*
X236851Y51401D02*
X259203D01*
X197862D02*
X220214D01*
X236724Y51528D02*
X258568D01*
X198497D02*
X220341D01*
X236724Y51655D02*
X257806D01*
X199259D02*
X220341D01*
X236597Y51782D02*
X257171D01*
X199894D02*
X220468D01*
X236470Y51909D02*
X256536D01*
X200529D02*
X220595D01*
X236343Y52036D02*
X256282D01*
X200783D02*
X220722D01*
X236216Y52163D02*
X256028D01*
X201037D02*
X220849D01*
X236089Y52290D02*
X255901D01*
X201164D02*
X220976D01*
X235962Y52417D02*
X255901D01*
X201164D02*
X221103D01*
X235835Y52544D02*
X255774D01*
X201291D02*
X221230D01*
X235708Y52671D02*
X255774D01*
X201291D02*
X221357D01*
X235581Y52798D02*
X255647D01*
X201418D02*
X221484D01*
X235454Y52925D02*
X255647D01*
X201418D02*
X221611D01*
X235327Y53052D02*
X255647D01*
X201418D02*
X221738D01*
X235073Y53179D02*
X255520D01*
X201545D02*
X221992D01*
X234946Y53306D02*
X255520D01*
X201545D02*
X222119D01*
X234819Y53433D02*
X255393D01*
X201672D02*
X222246D01*
X234565Y53560D02*
X255393D01*
X201672D02*
X222500D01*
X234438Y53687D02*
X255266D01*
X201799D02*
X222627D01*
X234184Y53814D02*
X255266D01*
X201799D02*
X222881D01*
X234057Y53941D02*
X255266D01*
X201799D02*
X223008D01*
X233803Y54068D02*
X255139D01*
X201926D02*
X223262D01*
X233549Y54195D02*
X255139D01*
X201926D02*
X223516D01*
X233295Y54322D02*
X255012D01*
X202053D02*
X223770D01*
X233041Y54449D02*
X255012D01*
X202053D02*
X224024D01*
X232787Y54576D02*
X254885D01*
X202180D02*
X224278D01*
X232533Y54703D02*
X254885D01*
X202180D02*
X224532D01*
X232152Y54830D02*
X254885D01*
X202180D02*
X224913D01*
X231898Y54957D02*
X254758D01*
X202307D02*
X225167D01*
X231390Y55084D02*
X254758D01*
X202307D02*
X225675D01*
X230882Y55211D02*
X254631D01*
X202434D02*
X226183D01*
X230247Y55338D02*
X254631D01*
X202434D02*
X226818D01*
X229231Y55465D02*
X254631D01*
X202434D02*
X227834D01*
X202561Y55592D02*
X254504D01*
X202561Y55719D02*
X254504D01*
X202688Y55846D02*
X254377D01*
X202688Y55973D02*
X254377D01*
X202815Y56100D02*
X254250D01*
X202815Y56227D02*
X254250D01*
X202815Y56354D02*
X254250D01*
X202942Y56481D02*
X254123D01*
X202942Y56608D02*
X254123D01*
X203069Y56735D02*
X253996D01*
X203069Y56862D02*
X253996D01*
X203196Y56989D02*
X253869D01*
X203196Y57116D02*
X253869D01*
X203196Y57243D02*
X253869D01*
X203323Y57370D02*
X253742D01*
X203323Y57497D02*
X253742D01*
X203450Y57624D02*
X253615D01*
X203450Y57751D02*
X253615D01*
X203577Y57878D02*
X253488D01*
X203577Y58005D02*
X253488D01*
X203577Y58132D02*
X253488D01*
X203704Y58259D02*
X253361D01*
X203704Y58386D02*
X253361D01*
X203831Y58513D02*
X253234D01*
X203831Y58640D02*
X253234D01*
X203958Y58767D02*
X253107D01*
X203958Y58894D02*
X253107D01*
X203958Y59021D02*
X253107D01*
X204085Y59148D02*
X252980D01*
X204085Y59275D02*
X252980D01*
X204085Y59402D02*
X252980D01*
X204085Y59529D02*
X252980D01*
X203958Y59656D02*
X253107D01*
X203958Y59783D02*
X253107D01*
X203831Y59910D02*
X253234D01*
X203831Y60037D02*
X253234D01*
X203704Y60164D02*
X253361D01*
X203577Y60291D02*
X253488D01*
X203577Y60418D02*
X253488D01*
X203450Y60545D02*
X253615D01*
X203323Y60672D02*
X253742D01*
X203323Y60799D02*
X253742D01*
X203196Y60926D02*
X253869D01*
X203069Y61053D02*
X253996D01*
X202942Y61180D02*
X254123D01*
X202942Y61307D02*
X254123D01*
X202815Y61434D02*
X254250D01*
X202688Y61561D02*
X254377D01*
X202688Y61688D02*
X254377D01*
X202561Y61815D02*
X254504D01*
X202434Y61942D02*
X254631D01*
X202434Y62069D02*
X254631D01*
X202307Y62196D02*
X254758D01*
X202180Y62323D02*
X254885D01*
X202180Y62450D02*
X254885D01*
X202053Y62577D02*
X255012D01*
X201926Y62704D02*
X255139D01*
X201926Y62831D02*
X255139D01*
X201799Y62958D02*
X255266D01*
X201672Y63085D02*
X255393D01*
X201545Y63212D02*
X255520D01*
X201545Y63339D02*
X255520D01*
X201418Y63466D02*
X255647D01*
X201291Y63593D02*
X255774D01*
X201291Y63720D02*
X255774D01*
X201164Y63847D02*
X255901D01*
X201037Y63974D02*
X256028D01*
X201037Y64101D02*
X256028D01*
X200910Y64228D02*
X256155D01*
X200783Y64355D02*
X256282D01*
X200783Y64482D02*
X256282D01*
X200656Y64609D02*
X256409D01*
X200529Y64736D02*
X256536D01*
X200529Y64863D02*
X256536D01*
X200402Y64990D02*
X256663D01*
X200275Y65117D02*
X256790D01*
X200275Y65244D02*
X256790D01*
X200148Y65371D02*
X256917D01*
X200021Y65498D02*
X257044D01*
X199894Y65625D02*
X257171D01*
X199894Y65752D02*
X257171D01*
X199767Y65879D02*
X257298D01*
X199640Y66006D02*
X257425D01*
X199640Y66133D02*
X257425D01*
X199513Y66260D02*
X257552D01*
X199386Y66387D02*
X257679D01*
X199386Y66514D02*
X257679D01*
X199259Y66641D02*
X257806D01*
X199132Y66768D02*
X257933D01*
X199132Y66895D02*
X257933D01*
X199005Y67022D02*
X258060D01*
X198878Y67149D02*
X258187D01*
X198878Y67276D02*
X258187D01*
X198751Y67403D02*
X258314D01*
X198624Y67530D02*
X258441D01*
X198624Y67657D02*
X258441D01*
X198497Y67784D02*
X258568D01*
X198497Y67911D02*
X258568D01*
X198624Y68038D02*
X258441D01*
X198624Y68165D02*
X258441D01*
X198751Y68292D02*
X258314D01*
X198878Y68419D02*
X258187D01*
X199005Y68546D02*
X258060D01*
X199132Y68673D02*
X257933D01*
X199259Y68800D02*
X257806D01*
X199386Y68927D02*
X257679D01*
X199513Y69054D02*
X257552D01*
X199640Y69181D02*
X257425D01*
X199767Y69308D02*
X257298D01*
X243074Y69435D02*
X257171D01*
X214753D02*
X242312D01*
X199894D02*
X213991D01*
X243328Y69562D02*
X257044D01*
X215007D02*
X242058D01*
X200021D02*
X213737D01*
X243455Y69689D02*
X256917D01*
X215261D02*
X241804D01*
X200148D02*
X213610D01*
X243582Y69816D02*
X256790D01*
X215642D02*
X241423D01*
X200275D02*
X213483D01*
X243836Y69943D02*
X256663D01*
X215896D02*
X241169D01*
X200402D02*
X213229D01*
X243963Y70070D02*
X256536D01*
X216277D02*
X240788D01*
X200529D02*
X213102D01*
X244217Y70197D02*
X256409D01*
X216531D02*
X240534D01*
X200656D02*
X212848D01*
X244344Y70324D02*
X256282D01*
X216912D02*
X240153D01*
X200783D02*
X212721D01*
X244598Y70451D02*
X256155D01*
X217166D02*
X239899D01*
X200910D02*
X212467D01*
X244725Y70578D02*
X256028D01*
X217547D02*
X239645D01*
X201037D02*
X212340D01*
X244979Y70705D02*
X255901D01*
X217801D02*
X239264D01*
X201164D02*
X212086D01*
X245106Y70832D02*
X255774D01*
X218055D02*
X239010D01*
X201291D02*
X211959D01*
X245360Y70959D02*
X255647D01*
X218436D02*
X238629D01*
X201418D02*
X211705D01*
X245487Y71086D02*
X255520D01*
X218690D02*
X238375D01*
X201545D02*
X211578D01*
X245741Y71213D02*
X255393D01*
X219071D02*
X237994D01*
X201672D02*
X211451D01*
X245868Y71340D02*
X255266D01*
X219325D02*
X237740D01*
X201799D02*
X211197D01*
X245995Y71467D02*
X255139D01*
X219706D02*
X237359D01*
X201926D02*
X211070D01*
X246249Y71594D02*
X255012D01*
X219960D02*
X237105D01*
X202053D02*
X210816D01*
X246376Y71721D02*
X254885D01*
X220214D02*
X236851D01*
X202180D02*
X210689D01*
X246630Y71848D02*
X254758D01*
X220595D02*
X236470D01*
X202307D02*
X210435D01*
X246757Y71975D02*
X254631D01*
X220849D02*
X236216D01*
X202434D02*
X210308D01*
X247011Y72102D02*
X254504D01*
X221103D02*
X235962D01*
X202561D02*
X210054D01*
X247138Y72229D02*
X254377D01*
X221357D02*
X235708D01*
X202688D02*
X209927D01*
X247392Y72356D02*
X254250D01*
X221484D02*
X235581D01*
X202815D02*
X209673D01*
X247519Y72483D02*
X254123D01*
X221484D02*
X235581D01*
X202942D02*
X209546D01*
X247773Y72610D02*
X253996D01*
X221611D02*
X235454D01*
X203069D02*
X209292D01*
X247900Y72737D02*
X253869D01*
X221611D02*
X235454D01*
X203196D02*
X209165D01*
X248027Y72864D02*
X253742D01*
X221611D02*
X235454D01*
X203323D02*
X209038D01*
X248281Y72991D02*
X253615D01*
X221611D02*
X235454D01*
X203450D02*
X208784D01*
X248408Y73118D02*
X253488D01*
X221611D02*
X235454D01*
X203577D02*
X208657D01*
X248662Y73245D02*
X253361D01*
X221738D02*
X235327D01*
X203704D02*
X208403D01*
X248789Y73372D02*
X253234D01*
X221738D02*
X235327D01*
X203831D02*
X208276D01*
X249043Y73499D02*
X253107D01*
X221738D02*
X235327D01*
X203958D02*
X208022D01*
X249170Y73626D02*
X252980D01*
X221738D02*
X235327D01*
X204085D02*
X207895D01*
X249424Y73753D02*
X252853D01*
X221738D02*
X235327D01*
X204212D02*
X207641D01*
X249551Y73880D02*
X252726D01*
X221738D02*
X235327D01*
X204339D02*
X207514D01*
X249805Y74007D02*
X252599D01*
X221865D02*
X235200D01*
X204466D02*
X207260D01*
X249932Y74134D02*
X252472D01*
X221865D02*
X235200D01*
X204593D02*
X207133D01*
X250059Y74261D02*
X252345D01*
X221865D02*
X235200D01*
X204720D02*
X207006D01*
X250313Y74388D02*
X252218D01*
X221865D02*
X235200D01*
X204847D02*
X206752D01*
X250440Y74515D02*
X252091D01*
X221865D02*
X235200D01*
X204974D02*
X206625D01*
X250694Y74642D02*
X251964D01*
X221992D02*
X235073D01*
X205101D02*
X206371D01*
X250821Y74769D02*
X251837D01*
X221992D02*
X235073D01*
X205228D02*
X206244D01*
X251075Y74896D02*
X251710D01*
X221992D02*
X235073D01*
X205355D02*
X205990D01*
X221992Y75023D02*
X235073D01*
X221992Y75150D02*
X235073D01*
X222119Y75277D02*
X234946D01*
X222119Y75404D02*
X234946D01*
X222119Y75531D02*
X234946D01*
X222119Y75658D02*
X234946D01*
X222119Y75785D02*
X234946D01*
X222119Y75912D02*
X234946D01*
X222246Y76039D02*
X234819D01*
X222246Y76166D02*
X234819D01*
X222246Y76293D02*
X234819D01*
X222246Y76420D02*
X234819D01*
X222246Y76547D02*
X234819D01*
X222373Y76674D02*
X234692D01*
X222373Y76801D02*
X234692D01*
X222373Y76928D02*
X234692D01*
X222373Y77055D02*
X234692D01*
X222373Y77182D02*
X234692D01*
X222500Y77309D02*
X234692D01*
X222500Y77436D02*
X234565D01*
X222500Y77563D02*
X234565D01*
X222500Y77690D02*
X234565D01*
X222500Y77817D02*
X234565D01*
X222500Y77944D02*
X234565D01*
X222627Y78071D02*
X234438D01*
X222627Y78198D02*
X234438D01*
X222627Y78325D02*
X234438D01*
X222627Y78452D02*
X234438D01*
X222627Y78579D02*
X234438D01*
X222754Y78706D02*
X234311D01*
X222754Y78833D02*
X234311D01*
X222754Y78960D02*
X234311D01*
X222754Y79087D02*
X234311D01*
X222754Y79214D02*
X234311D01*
X222754Y79341D02*
X234311D01*
X222881Y79468D02*
X234184D01*
X222881Y79595D02*
X234184D01*
X222881Y79722D02*
X234184D01*
X222881Y79849D02*
X234184D01*
X222881Y79976D02*
X234184D01*
X223008Y80103D02*
X234057D01*
X223008Y80230D02*
X234057D01*
X223008Y80357D02*
X234057D01*
X223008Y80484D02*
X234057D01*
X223008Y80611D02*
X234057D01*
X223135Y80738D02*
X233930D01*
X223135Y80865D02*
X233930D01*
X223135Y80992D02*
X233930D01*
X223135Y81119D02*
X233930D01*
X223135Y81246D02*
X233930D01*
X223135Y81373D02*
X233930D01*
X223262Y81500D02*
X233803D01*
X223262Y81627D02*
X233803D01*
X223262Y81754D02*
X233803D01*
X223262Y81881D02*
X233803D01*
X223262Y82008D02*
X233803D01*
X223389Y82135D02*
X233676D01*
X223389Y82262D02*
X233676D01*
X223516Y82389D02*
X233549D01*
X223770Y82516D02*
X233295D01*
M02*
