G04 Layer_Physical_Order=2*
G04 Layer_Color=16711680*
%FSLAX44Y44*%
%MOMM*%
G71*
G01*
G75*
%ADD17C,0.2500*%
%ADD18C,1.6000*%
%ADD19C,2.0000*%
%ADD20C,7.0000*%
%ADD21C,0.6000*%
%ADD22R,1.0000X0.8000*%
%ADD23C,0.2000*%
G36*
X110000Y10000D02*
X30000D01*
X28030Y10000D01*
X24166Y10769D01*
X20526Y12276D01*
X17250Y14465D01*
X14465Y17251D01*
X12276Y20526D01*
X10769Y24166D01*
X10000Y28030D01*
X10000Y30000D01*
Y120000D01*
X50000Y120000D01*
X50000Y420000D01*
X110000Y420000D01*
Y10000D01*
D02*
G37*
G36*
X388000Y326000D02*
X388000Y254000D01*
X234000Y254000D01*
X234000Y326000D01*
X388000Y326000D01*
D02*
G37*
%LPC*%
G36*
X90250Y97422D02*
X88889Y97243D01*
X86456Y96235D01*
X84368Y94632D01*
X82765Y92543D01*
X81757Y90111D01*
X81578Y88750D01*
X90250D01*
Y97422D01*
D02*
G37*
G36*
X92750D02*
Y88750D01*
X101421D01*
X101242Y90111D01*
X100235Y92543D01*
X98632Y94632D01*
X96543Y96235D01*
X94110Y97243D01*
X92750Y97422D01*
D02*
G37*
G36*
X65750Y152098D02*
X63799Y151710D01*
X62145Y150605D01*
X61040Y148951D01*
X60652Y147000D01*
X61040Y145049D01*
X62145Y143395D01*
X62436Y143201D01*
Y139000D01*
X58750D01*
Y127000D01*
X72750D01*
Y139000D01*
X69064D01*
Y143201D01*
X69355Y143395D01*
X70460Y145049D01*
X70848Y147000D01*
X70460Y148951D01*
X69355Y150605D01*
X67701Y151710D01*
X65750Y152098D01*
D02*
G37*
G36*
X48500Y89582D02*
X45167Y89254D01*
X41963Y88282D01*
X39010Y86703D01*
X36421Y84579D01*
X34297Y81990D01*
X32718Y79037D01*
X31746Y75833D01*
X31418Y72500D01*
X31746Y69167D01*
X32718Y65963D01*
X34297Y63010D01*
X36421Y60421D01*
X39010Y58297D01*
X41963Y56718D01*
X45167Y55746D01*
X48500Y55418D01*
X51833Y55746D01*
X55037Y56718D01*
X57990Y58297D01*
X60579Y60421D01*
X62703Y63010D01*
X64282Y65963D01*
X65254Y69167D01*
X65582Y72500D01*
X65254Y75833D01*
X64282Y79037D01*
X62703Y81990D01*
X60579Y84579D01*
X57990Y86703D01*
X55037Y88282D01*
X51833Y89254D01*
X48500Y89582D01*
D02*
G37*
G36*
X72750Y125000D02*
X58750D01*
Y113000D01*
X62436D01*
Y106000D01*
X62647Y104942D01*
X62689Y104732D01*
X63407Y103657D01*
X70436Y96627D01*
Y75250D01*
X70647Y74192D01*
X70689Y73982D01*
X71407Y72907D01*
X82473Y61840D01*
X81757Y60111D01*
X81413Y57500D01*
X81757Y54890D01*
X82765Y52457D01*
X84368Y50368D01*
X86456Y48765D01*
X88889Y47758D01*
X91500Y47414D01*
X94110Y47758D01*
X96543Y48765D01*
X98632Y50368D01*
X100235Y52457D01*
X101242Y54890D01*
X101586Y57500D01*
X101242Y60111D01*
X100235Y62543D01*
X98632Y64632D01*
X96543Y66235D01*
X94110Y67243D01*
X91500Y67587D01*
X88889Y67243D01*
X87160Y66526D01*
X77064Y76623D01*
Y98000D01*
X76811Y99268D01*
X76093Y100343D01*
X69064Y107373D01*
Y113000D01*
X72750D01*
Y125000D01*
D02*
G37*
G36*
X101421Y86250D02*
X92750D01*
Y77579D01*
X94110Y77758D01*
X96543Y78765D01*
X98632Y80368D01*
X100235Y82457D01*
X101242Y84890D01*
X101421Y86250D01*
D02*
G37*
G36*
X90250D02*
X81578D01*
X81757Y84890D01*
X82765Y82457D01*
X84368Y80368D01*
X86456Y78765D01*
X88889Y77758D01*
X90250Y77579D01*
Y86250D01*
D02*
G37*
G36*
X84250Y227098D02*
X82299Y226710D01*
X80645Y225605D01*
X79540Y223951D01*
X79152Y222000D01*
X79540Y220049D01*
X80645Y218395D01*
X80936Y218201D01*
Y174799D01*
X80645Y174605D01*
X79540Y172951D01*
X79152Y171000D01*
X79540Y169049D01*
X80645Y167395D01*
X82299Y166290D01*
X84250Y165902D01*
X86201Y166290D01*
X87855Y167395D01*
X88960Y169049D01*
X89348Y171000D01*
X88960Y172951D01*
X87855Y174605D01*
X87564Y174799D01*
Y218201D01*
X87855Y218395D01*
X88960Y220049D01*
X89348Y222000D01*
X88960Y223951D01*
X87855Y225605D01*
X86201Y226710D01*
X84250Y227098D01*
D02*
G37*
G36*
X104099Y226500D02*
X100500D01*
Y222901D01*
X101201Y223040D01*
X102855Y224145D01*
X103960Y225799D01*
X104099Y226500D01*
D02*
G37*
G36*
X98000D02*
X94401D01*
X94540Y225799D01*
X95645Y224145D01*
X97299Y223040D01*
X98000Y222901D01*
Y226500D01*
D02*
G37*
G36*
X100500Y232599D02*
Y229000D01*
X104099D01*
X103960Y229701D01*
X102855Y231355D01*
X101201Y232460D01*
X100500Y232599D01*
D02*
G37*
G36*
X98000D02*
X97299Y232460D01*
X95645Y231355D01*
X94540Y229701D01*
X94401Y229000D01*
X98000D01*
Y232599D01*
D02*
G37*
G36*
X104099Y175750D02*
X100500D01*
Y172151D01*
X101201Y172290D01*
X102855Y173395D01*
X103960Y175049D01*
X104099Y175750D01*
D02*
G37*
G36*
X98000D02*
X94401D01*
X94540Y175049D01*
X95645Y173395D01*
X97299Y172290D01*
X98000Y172151D01*
Y175750D01*
D02*
G37*
G36*
X100500Y181849D02*
Y178250D01*
X104099D01*
X103960Y178951D01*
X102855Y180605D01*
X101201Y181710D01*
X100500Y181849D01*
D02*
G37*
G36*
X98000D02*
X97299Y181710D01*
X95645Y180605D01*
X94540Y178951D01*
X94401Y178250D01*
X98000D01*
Y181849D01*
D02*
G37*
%LPD*%
D17*
X220750Y113750D02*
Y176750D01*
Y113750D02*
X261500Y73000D01*
X325000D01*
X84250Y171000D02*
Y222000D01*
X65750Y133000D02*
Y147000D01*
Y106000D02*
Y119000D01*
Y106000D02*
X73750Y98000D01*
Y75250D02*
Y98000D01*
Y75250D02*
X91500Y57500D01*
D18*
Y87500D02*
D03*
Y57500D02*
D03*
D19*
X419000Y286000D02*
D03*
X377000D02*
D03*
D20*
X270000Y140000D02*
D03*
Y290000D02*
D03*
D21*
X325000Y73000D02*
D03*
X220750Y176750D02*
D03*
X99250Y227750D02*
D03*
Y177000D02*
D03*
X84250Y222000D02*
D03*
Y171000D02*
D03*
X65750Y147000D02*
D03*
D22*
Y119000D02*
D03*
Y133000D02*
D03*
D23*
X11207Y409000D02*
X19538D01*
X21204Y407334D01*
Y404002D01*
X19538Y402336D01*
X11207D01*
Y399003D02*
X21204D01*
Y394005D01*
X19538Y392339D01*
X17872D01*
X16206Y394005D01*
Y399003D01*
Y394005D01*
X14539Y392339D01*
X12873D01*
X11207Y394005D01*
Y399003D01*
X12873Y382342D02*
X11207Y384008D01*
Y387340D01*
X12873Y389006D01*
X19538D01*
X21204Y387340D01*
Y384008D01*
X19538Y382342D01*
X11207Y362348D02*
Y369013D01*
X16206D01*
Y365681D01*
Y369013D01*
X21204D01*
Y357350D02*
Y354018D01*
X19538Y352352D01*
X16206D01*
X14539Y354018D01*
Y357350D01*
X16206Y359016D01*
X19538D01*
X21204Y357350D01*
X14539Y349019D02*
X21204D01*
X17872D01*
X16206Y347353D01*
X14539Y345687D01*
Y344021D01*
X21204Y339022D02*
X14539D01*
Y337356D01*
X16206Y335690D01*
X21204D01*
X16206D01*
X14539Y334024D01*
X16206Y332358D01*
X21204D01*
X14539Y329026D02*
X19538D01*
X21204Y327360D01*
Y322361D01*
X14539D01*
X21204Y319029D02*
Y315697D01*
Y317363D01*
X11207D01*
Y319029D01*
X14539Y309032D02*
Y305700D01*
X16206Y304034D01*
X21204D01*
Y309032D01*
X19538Y310698D01*
X17872Y309032D01*
Y304034D01*
X11207Y284040D02*
Y290705D01*
X21204D01*
Y284040D01*
X16206Y290705D02*
Y287372D01*
X21204Y280708D02*
Y277376D01*
Y279042D01*
X11207D01*
Y280708D01*
X21204Y267379D02*
Y270711D01*
X19538Y272377D01*
X16206D01*
X14539Y270711D01*
Y267379D01*
X16206Y265713D01*
X17872D01*
Y272377D01*
X14539Y255716D02*
Y260714D01*
X16206Y262381D01*
X19538D01*
X21204Y260714D01*
Y255716D01*
X12873Y250718D02*
X14539D01*
Y252384D01*
Y249051D01*
Y250718D01*
X19538D01*
X21204Y249051D01*
X14539Y244053D02*
X21204D01*
X17872D01*
X16206Y242387D01*
X14539Y240721D01*
Y239055D01*
X21204Y234056D02*
Y230724D01*
Y232390D01*
X14539D01*
Y234056D01*
Y219061D02*
Y224060D01*
X16206Y225726D01*
X19538D01*
X21204Y224060D01*
Y219061D01*
Y199068D02*
Y205732D01*
X14539Y199068D01*
X12873D01*
X11207Y200734D01*
Y204066D01*
X12873Y205732D01*
Y195735D02*
X11207Y194069D01*
Y190737D01*
X12873Y189071D01*
X19538D01*
X21204Y190737D01*
Y194069D01*
X19538Y195735D01*
X12873D01*
X21204Y185739D02*
Y182406D01*
Y184072D01*
X11207D01*
X12873Y185739D01*
X11207Y177408D02*
Y170744D01*
X12873D01*
X19538Y177408D01*
X21204D01*
X28003Y409000D02*
X38000D01*
Y402336D01*
Y399003D02*
Y395671D01*
Y397337D01*
X31335D01*
Y399003D01*
Y384008D02*
Y389006D01*
X33002Y390673D01*
X36334D01*
X38000Y389006D01*
Y384008D01*
Y375677D02*
Y379010D01*
X36334Y380676D01*
X33002D01*
X31335Y379010D01*
Y375677D01*
X33002Y374011D01*
X34668D01*
Y380676D01*
X38000Y370679D02*
X31335D01*
Y365681D01*
X33002Y364015D01*
X38000D01*
Y360682D02*
Y355684D01*
X36334Y354018D01*
X34668Y355684D01*
Y359016D01*
X33002Y360682D01*
X31335Y359016D01*
Y354018D01*
X38000Y345687D02*
Y349019D01*
X36334Y350686D01*
X33002D01*
X31335Y349019D01*
Y345687D01*
X33002Y344021D01*
X34668D01*
Y350686D01*
X28003Y334024D02*
X38000D01*
Y339022D01*
X36334Y340689D01*
X33002D01*
X31335Y339022D01*
Y334024D01*
Y320695D02*
X36334D01*
X38000Y319029D01*
Y314031D01*
X31335D01*
X38000Y310698D02*
X31335D01*
Y305700D01*
X33002Y304034D01*
X38000D01*
X28003Y294037D02*
X38000D01*
Y299035D01*
X36334Y300702D01*
X33002D01*
X31335Y299035D01*
Y294037D01*
X38000Y285706D02*
Y289039D01*
X36334Y290705D01*
X33002D01*
X31335Y289039D01*
Y285706D01*
X33002Y284040D01*
X34668D01*
Y290705D01*
X31335Y280708D02*
X38000D01*
X34668D01*
X33002Y279042D01*
X31335Y277376D01*
Y275710D01*
X29669Y254050D02*
X28003Y255716D01*
Y259048D01*
X29669Y260714D01*
X36334D01*
X38000Y259048D01*
Y255716D01*
X36334Y254050D01*
X28003Y244053D02*
Y250718D01*
X38000D01*
Y244053D01*
X33002Y250718D02*
Y247385D01*
X38000Y240721D02*
X28003D01*
Y235723D01*
X29669Y234056D01*
X33002D01*
X34668Y235723D01*
Y240721D01*
Y237389D02*
X38000Y234056D01*
Y230724D02*
X28003D01*
X38000Y224060D01*
X28003D01*
Y205732D02*
Y209064D01*
X29669Y210730D01*
X36334D01*
X38000Y209064D01*
Y205732D01*
X36334Y204066D01*
X29669D01*
X28003Y205732D01*
Y200734D02*
X38000D01*
X33002D01*
Y194069D01*
X28003D01*
X38000D01*
X28003Y190737D02*
X38000D01*
Y184072D01*
X31335Y170743D02*
X38000Y167411D01*
X31335Y164079D01*
X38000Y160747D02*
X36334D01*
Y159080D01*
X38000D01*
Y160747D01*
Y152416D02*
Y149084D01*
Y150750D01*
X28003D01*
X29669Y152416D01*
X38000Y144085D02*
X36334D01*
Y142419D01*
X38000D01*
Y144085D01*
Y129090D02*
Y135755D01*
X31335Y129090D01*
X29669D01*
X28003Y130756D01*
Y134089D01*
X29669Y135755D01*
M02*
